<svg xmlns="http://www.w3.org/2000/svg" width="117.787" height="217.416" viewBox="0 0 117.787 217.416">
  <g id="Vg0gMo" transform="translate(-856.201 1030.406)">
    <g id="Group_143773" data-name="Group 143773" transform="translate(778.931 -965.115)">
      <path id="Path_185584" data-name="Path 185584" d="M1159.338-819.008c1.583,4.313,3.066,8.359,4.552,12.4q9.709,26.436,19.42,52.871c.121.329.255.656.349.993a2.763,2.763,0,0,1-1.756,3.676,2.689,2.689,0,0,1-3.476-1.812c-1.673-4.432-3.291-8.885-4.925-13.331-4.2-11.418-8.418-22.828-12.556-34.267a2.083,2.083,0,0,0-2.331-1.7q-9.58.105-19.163,0a1.956,1.956,0,0,0-2.155,1.5q-9.28,23.5-18.633,46.969c-.108.272-.209.547-.328.813-.767,1.721-2.077,2.363-3.647,1.793a2.757,2.757,0,0,1-1.562-3.766c.885-2.416,1.878-4.792,2.829-7.184q10.336-26.006,20.674-52.012c.877-2.207,1.76-4.413,2.781-6.968-3.053,0-5.775,0-8.5,0-2.927.006-5.854.034-8.781.028-2.859-.006-3.681-.859-3.733-3.786-.015-.813-.073-1.626-.124-2.722-1.706,0-3.381-.028-5.055,0-5.968.116-10.607-4.233-10.639-10-.031-5.534,4.52-9.911,10.343-9.943,1.744-.01,3.487,0,5.44,0,0-1.379-.038-2.593.009-3.8a2.832,2.832,0,0,1,2.9-3.079c1.1-.094,2.224-.019,3.337-.019q24.526.012,49.05.029c2.57,0,3.449.893,3.453,3.5q.018,13.186,0,26.371c0,2.558-.913,3.446-3.52,3.455-4.044.013-8.087-.006-12.131-.011Zm12.051-5.692v-21.942h-47.331V-824.7Zm-31.146,18.87H1158.2c-1.571-4.267-3.055-8.379-4.634-12.453-.141-.364-.891-.669-1.373-.691-1.755-.081-3.518.027-5.272-.05a1.774,1.774,0,0,0-2.064,1.356c-.989,2.75-2.138,5.442-3.212,8.162C1141.18-808.331,1140.743-807.145,1140.243-805.83Zm-23.369-34c-1.76,0-3.337-.107-4.894.027a4.363,4.363,0,0,0-3.762,3.839c-.229,1.691.889,4.062,2.486,4.419a48.564,48.564,0,0,0,6.17.621Z" transform="translate(-988.756 901.03)" fill="#12263f"/>
      <path id="Path_185585" data-name="Path 185585" d="M778.933-908.852q0-26.108.006-52.215c0-3.762,1.111-4.613,4.733-3.726q31.446,7.708,62.89,15.426,10.479,2.57,20.96,5.136c2.435.6,2.983,1.274,2.983,3.767q0,31.555,0,63.11c0,2.773-.441,3.359-3.111,4.013q-42.089,10.316-84.181,20.619c-3.057.748-4.271-.2-4.274-3.388Q778.92-882.481,778.933-908.852Zm5.64,49.976a4.9,4.9,0,0,0,.6-.035Q824.1-868.475,863.036-878c1.519-.369,1.91-.93,1.906-2.418q-.074-28.125.019-56.25c.009-1.96-.592-2.626-2.443-3.075q-34.952-8.474-69.867-17.1c-2.648-.65-5.3-1.269-8.078-1.932Z" transform="translate(-701.661 899.825)" fill="#12263f"/>
      <path id="Path_185586" data-name="Path 185586" d="M1066.452-843.1c.012,2.6-1.966,4.078-3.751,3.111-4.212-2.281-8.334-4.734-12.429-7.223a2.673,2.673,0,0,1-.635-3.752,2.82,2.82,0,0,1,3.892-.725c3.1,1.759,6.168,3.584,9.246,5.386a14.031,14.031,0,0,1,2.382,1.469A8.686,8.686,0,0,1,1066.452-843.1Z" transform="translate(-954.113 900.884)" fill="#12263f"/>
      <path id="Path_185587" data-name="Path 185587" d="M1066.469-793.251c-.318.387-.792,1.425-1.594,1.857-3.8,2.051-7.678,3.975-11.567,5.862a2.653,2.653,0,0,1-3.838-1.224,2.7,2.7,0,0,1,1.433-3.775c3.794-1.95,7.6-3.883,11.437-5.74C1064.385-797.261,1066.45-796,1066.469-793.251Z" transform="translate(-954.116 864.87)" fill="#12263f"/>
      <path id="Path_185588" data-name="Path 185588" d="M1199.022-813.016c4.569,0,9.138-.01,13.706,0,2.24.007,3.478,1.037,3.441,2.81-.036,1.736-1.2,2.708-3.384,2.713q-13.794.032-27.588.017c-2.089,0-3.29-1.1-3.247-2.848.042-1.717,1.143-2.679,3.19-2.688C1189.767-813.029,1194.395-813.015,1199.022-813.016Z" transform="translate(-1040.212 875.51)" fill="#12263f"/>
      <path id="Path_185589" data-name="Path 185589" d="M847.247-877.266c4.243.843,8.033,1.584,11.818,2.35q15.566,3.152,31.129,6.32c.057.012.116.019.173.031,2.2.466,3.192,1.667,2.847,3.454-.335,1.738-1.732,2.473-3.987,2.036-2.987-.58-5.966-1.2-8.948-1.8-10.893-2.206-21.79-4.389-32.668-6.666a4.115,4.115,0,0,1-2.5-1.595,3.2,3.2,0,0,1,.092-2.74C845.608-876.6,846.706-876.926,847.247-877.266Z" transform="translate(-744.391 842.872)" fill="#12263f"/>
      <path id="Path_185590" data-name="Path 185590" d="M871.023-808.744q15.678,1.221,31.354,2.453a2.779,2.779,0,0,1,2.734,3.016,2.831,2.831,0,0,1-3.216,2.544c-6.426-.467-12.847-.988-19.27-1.486q-6.132-.475-12.263-.942c-2.267-.171-3.459-1.377-3.214-3.269C867.369-808.13,868.552-808.836,871.023-808.744Z" transform="translate(-758.833 798.453)" fill="#12263f"/>
    </g>
  </g>
</svg>
