<svg xmlns="http://www.w3.org/2000/svg" width="55.655" height="54.695" viewBox="0 0 55.655 54.695">
  <g id="PchGjE" transform="translate(4460.951 64.358)">
    <g id="Group_143681" data-name="Group 143681" transform="translate(-4460.951 -64.358)">
      <path id="Path_185290" data-name="Path 185290" d="M-4341.958,197.957q.008-9.294.016-18.587c0-.512,0-1.025,0-1.6h-12.3v-5.238h29.284v5.212h-11.685v20.216h-1.729c-.02-.265-.057-.529-.057-.794q-.005-9.294,0-18.589V177.8h-1.734v.773q0,9.295,0,18.589c0,.265-.037.529-.057.794Zm15.179-23.662h-25.661v1.643h25.661Z" transform="translate(4367.428 -143.262)" fill="#12263f"/>
      <path id="Path_185291" data-name="Path 185291" d="M-4442.029,143.183q-.007-6.484-.014-12.968c0-1.316-.52-1.842-1.822-1.843h-8.6V127.6c0-3.644-.022-7.287.011-10.931a3.032,3.032,0,0,0-1.607-2.844,19.777,19.777,0,0,0-5.094-1.611c-.012.3-.031.518-.031.733q0,8.09,0,16.18a3.808,3.808,0,0,0,3.939,3.923q4.447.005,8.893,0h.7c.431,3.412.854,6.77,1.278,10.129h-1.729c-.164-1.157-.334-2.312-.49-3.47-.216-1.607-.419-3.215-.635-4.872-.672,0-1.307,0-1.942,0-2.3-.016-4.612.039-6.911-.074a5.4,5.4,0,0,1-4.854-5.135c-.024-6.4-.008-12.8-.007-19.2,0-.1.01-.2.022-.395.506.1.982.172,1.446.289,1.59.4,3.207.729,4.752,1.262a8.961,8.961,0,0,1,2.585,1.494,4.033,4.033,0,0,1,1.462,3.323c-.01,3.149,0,6.3,0,9.447v.766h.688q3.211,0,6.421,0a3.129,3.129,0,0,1,3.284,3.293q0,6.638-.013,13.275Z" transform="translate(4460.951 -88.488)" fill="#12263f"/>
      <path id="Path_185292" data-name="Path 185292" d="M-4173.809,143c.422-3.343.843-6.686,1.278-10.129h.639q4.447,0,8.893,0a3.813,3.813,0,0,0,4-3.985q0-8.028,0-16.056v-.775c-.479.108-.894.183-1.3.3a26.62,26.62,0,0,0-3.061.91,3.308,3.308,0,0,0-2.384,3.537c.069,3.5.02,7,.02,10.5v.892h-.7q-3.984,0-7.966,0c-1.218,0-1.758.549-1.76,1.781q-.007,6.515-.014,13.03h-1.729c0-4.528-.022-9.056-.006-13.584a3.089,3.089,0,0,1,3.091-2.981c2.182-.016,4.364,0,6.546,0h.75v-.7c0-3.067.04-6.134-.014-9.2a4.6,4.6,0,0,1,2.877-4.611,36.647,36.647,0,0,1,4.794-1.518c.825-.237,1.678-.372,2.609-.572v.79c0,6.113-.057,12.227.026,18.339a5.642,5.642,0,0,1-5.686,5.7c-2.429-.006-4.857,0-7.286,0h-.771c-.256,1.983-.5,3.917-.757,5.85-.11.832-.243,1.662-.366,2.492Z" transform="translate(4212.869 -88.309)" fill="#12263f"/>
      <path id="Path_185293" data-name="Path 185293" d="M-4370.836-46.285V-59.731h13.759v-2.892h-16.914c0,.909.032,1.828-.017,2.742a1.922,1.922,0,0,1-.362.987c-.572.775-1.205,1.5-1.9,2.358H-4374v3.8h1.839v1.766h-3.627v-3.773h-4.271c.844-1.037,1.6-1.967,2.358-2.9a10.1,10.1,0,0,1,.906-1.091,3.214,3.214,0,0,0,1-2.876c-.083-.9-.017-1.8-.017-2.757h20.525v4.582h4.968a20.6,20.6,0,0,1-.016,2.389,4.317,4.317,0,0,0,1.33,3.756c1.025,1.059,1.886,2.277,2.817,3.427.01.012,0,.038,0,.115h-4.124v3.8Zm1.813-11.664v5.195h11.985v-4.068h1.729v5.92h-13.707v2.8h16.921v-3.78h2.221c-.688-.851-1.317-1.583-1.889-2.357a1.793,1.793,0,0,1-.326-.932c-.043-.917-.016-1.837-.016-2.777Z" transform="translate(4390.054 64.358)" fill="#12263f"/>
      <path id="Path_185294" data-name="Path 185294" d="M-4110.477,13.827V10.964h-2.422c.079-.229.125-.393.192-.547.65-1.506,1.326-3,1.949-4.521a11.78,11.78,0,0,0,.446-1.647,5.116,5.116,0,0,1,5.424-3.884,5.055,5.055,0,0,1,4.615,5.052c0,.988-.044,1.978.01,2.963a5.257,5.257,0,0,1-4.933,5.435C-4106.917,13.871-4108.643,13.827-4110.477,13.827Zm1.781-1.763c1.205,0,2.317.05,3.422-.012a3.369,3.369,0,0,0,3.119-2.782,28.7,28.7,0,0,0,.12-3.749,3.279,3.279,0,0,0-3.1-3.349,3.334,3.334,0,0,0-3.557,3.158,2.513,2.513,0,0,1-.18.765c-.415.994-.851,1.978-1.312,3.044h1.489Z" transform="translate(4155.899 7.661)" fill="#12263f"/>
      <path id="Path_185295" data-name="Path 185295" d="M-4450.717,13.931c-1.806,0-3.528.008-5.249-.007a4.292,4.292,0,0,1-.97-.148,5.235,5.235,0,0,1-3.99-5.074q-.005-1.605,0-3.211A5.085,5.085,0,0,1-4456.1.447a5.123,5.123,0,0,1,5.339,4.588,2.629,2.629,0,0,0,.225.758c.736,1.712,1.483,3.42,2.264,5.216h-2.441Zm-.3-4.708c-.255-.593-.5-1.088-.684-1.6a27.224,27.224,0,0,1-.863-2.663,3.334,3.334,0,0,0-3.537-2.687,3.218,3.218,0,0,0-3.029,2.9,32.94,32.94,0,0,0-.034,3.452,3.373,3.373,0,0,0,2.744,3.4,27.178,27.178,0,0,0,3.928.038V9.223Z" transform="translate(4460.932 7.565)" fill="#12263f"/>
      <path id="Path_185296" data-name="Path 185296" d="M-4280.823,122.974h-1.718v-1.707h1.718Z" transform="translate(4304.583 -98.334)" fill="#12263f"/>
      <path id="Path_185297" data-name="Path 185297" d="M-4242.641,122.982v-1.707h1.68v1.707Z" transform="translate(4269.612 -98.341)" fill="#12263f"/>
      <path id="Path_185298" data-name="Path 185298" d="M-4202.866,121.207h1.7v1.714h-1.7Z" transform="translate(4234.751 -98.281)" fill="#12263f"/>
    </g>
  </g>
</svg>
