<svg xmlns="http://www.w3.org/2000/svg" width="55.011" height="55" viewBox="0 0 55.011 55">
  <g id="yUDR0L.tif" transform="translate(4249.65 -110.247)">
    <g id="Group_143680" data-name="Group 143680" transform="translate(-4249.65 110.247)">
      <path id="Path_185284" data-name="Path 185284" d="M-4194.639,375.462c-.506,2.129-2.268,3.312-3.636,4.785a1.025,1.025,0,0,1-1.532.006,1.063,1.063,0,0,1,.042-1.542c.794-.851,1.646-1.649,2.412-2.523a2.19,2.19,0,0,0-1.022-3.551,2.189,2.189,0,0,0-2.378.7c-1.642,1.749-3.279,3.5-4.941,5.233a38.17,38.17,0,0,1-2.982,2.932,12.476,12.476,0,0,1-7.974,2.848c-2.416.045-4.834,0-7.251-.008-.772,0-1.214-.275-1.357-.8-.218-.8.345-1.394,1.346-1.4q3.571,0,7.144,0c.232,0,.466,0,.7-.01a2.059,2.059,0,0,0,1.971-1.723,1.948,1.948,0,0,0-1.292-2.167c-3.173-.969-6.34-1.973-9.554-2.787a8.859,8.859,0,0,0-5.421.552c-3.142,1.231-6.269,2.5-9.4,3.752-.064.026-.122.066-.225.122.081.164.149.32.232.468,1.832,3.235,3.672,6.466,5.49,9.709a.774.774,0,0,0,.8.447c5.784-.011,11.567,0,17.35-.005a10.994,10.994,0,0,0,8.217-3.449q1.1-1.138,2.208-2.273a3.543,3.543,0,0,1,.35-.332,1.066,1.066,0,0,1,1.462.02,1,1,0,0,1,.067,1.451c-2.02,2.092-3.876,4.378-6.653,5.578a13.469,13.469,0,0,1-5.408,1.156q-8.138-.007-16.275-.006h-.7c.057.774-.488,1.076-1.042,1.392-1.816,1.037-3.625,2.088-5.435,3.136a1.11,1.11,0,0,1-1.263.011.909.909,0,0,1-.418-1.072,1.834,1.834,0,0,1,.715-.865c1.434-.875,2.9-1.7,4.355-2.538.154-.089.3-.184.521-.316l-8.378-14.774c-.345.217-.659.416-.974.614-1.031.645-2.057,1.3-3.095,1.931a1.084,1.084,0,0,1-1.6-.266,1.082,1.082,0,0,1,.447-1.558q2.444-1.556,4.912-3.074a1.1,1.1,0,0,1,1.717.445c.437.735.849,1.485,1.281,2.246,2.239-.892,4.438-1.784,6.649-2.642,1.613-.625,3.217-1.293,4.873-1.783a11.749,11.749,0,0,1,6.87.17c2.544.776,5.091,1.541,7.631,2.33,2.26.7,3.25,2.287,3.133,5.006a8.594,8.594,0,0,0,2.634-1.822q3.332-3.464,6.609-6.98a4.911,4.911,0,0,1,3.652-1.866,4.341,4.341,0,0,1,4.325,3.52.631.631,0,0,0,.1.173Z" transform="translate(4249.649 -342.377)" fill="#fff"/>
      <path id="Path_185285" data-name="Path 185285" d="M-4086.369,110.247a6.876,6.876,0,0,1,.767.727c2.608,3.344,5.247,6.666,7.794,10.056a11.136,11.136,0,0,1-5.619,17.3,11.167,11.167,0,0,1-14.335-9.1,11.251,11.251,0,0,1,2.48-8.717c2.515-3.19,5.014-6.393,7.53-9.582a6.288,6.288,0,0,1,.738-.682Zm-.288,2.886c-.084.049-.123.059-.142.084-2.437,3.113-4.923,6.189-7.289,9.355a8.37,8.37,0,0,0-1.478,6.671,9.034,9.034,0,0,0,9.927,7.349,9.053,9.053,0,0,0,7.712-10.692,10.511,10.511,0,0,0-2.13-4.272C-4082.271,118.82-4084.448,115.981-4086.657,113.133Z" transform="translate(4114.2 -110.247)" fill="#fff"/>
      <path id="Path_185286" data-name="Path 185286" d="M-4213.57,473.147a1.171,1.171,0,0,1-.772,1.1.9.9,0,0,1-1.142-.342q-2.035-3.457-4-6.956a.981.981,0,0,1,.458-1.281,1.042,1.042,0,0,1,1.313.224,4.727,4.727,0,0,1,.473.711q1.689,2.919,3.365,5.844A6.033,6.033,0,0,1-4213.57,473.147Z" transform="translate(4222.817 -427.296)" fill="#fff"/>
      <path id="Path_185287" data-name="Path 185287" d="M-3816.3,474.138a1.1,1.1,0,0,1,1.075,1.058,1.124,1.124,0,0,1-1.106,1.088,1.089,1.089,0,0,1-1.033-1.092A1.068,1.068,0,0,1-3816.3,474.138Z" transform="translate(3863.883 -434.976)" fill="#fff"/>
      <path id="Path_185288" data-name="Path 185288" d="M-4165.558,557.1a1.06,1.06,0,0,1,1.038,1.078,1.1,1.1,0,0,1-1.063,1.064,1.112,1.112,0,0,1-1.073-1.118A1.083,1.083,0,0,1-4165.558,557.1Z" transform="translate(4175.589 -509.012)" fill="#fff"/>
      <path id="Path_185289" data-name="Path 185289" d="M-4028.615,196.006a1.828,1.828,0,0,0,1.519,1.548,10.333,10.333,0,0,1,2.219.52,3.347,3.347,0,0,1,2.081,3.286,3.5,3.5,0,0,1-2.311,3.26c-.325.142-.561.243-.594.678a.974.974,0,0,1-1.034.824.974.974,0,0,1-1.02-.842c-.027-.418-.244-.515-.557-.647a3.615,3.615,0,0,1-2.344-3.074,1.137,1.137,0,0,1,.881-1.329,1.071,1.071,0,0,1,1.244.96,1.767,1.767,0,0,0,1.92,1.605,1.628,1.628,0,0,0,1.646-1.512,1.592,1.592,0,0,0-1.6-1.494,4.585,4.585,0,0,1-2.567-.807,3.455,3.455,0,0,1-1.51-3.243,3.561,3.561,0,0,1,2.336-3.021c.293-.128.491-.219.557-.59a1,1,0,0,1,1.013-.8,1.025,1.025,0,0,1,1.038.842c.047.332.21.428.476.535a3.672,3.672,0,0,1,2.435,3.127,1.118,1.118,0,0,1-.955,1.32,1.071,1.071,0,0,1-1.178-.976,1.82,1.82,0,0,0-2.96-1.206A4.556,4.556,0,0,0-4028.615,196.006Z" transform="translate(4054.235 -182.596)" fill="#fff"/>
    </g>
  </g>
</svg>
