<svg xmlns="http://www.w3.org/2000/svg" width="96.099" height="142.215" viewBox="0 0 96.099 142.215">
  <g id="JUIn2q" transform="translate(-1050.446 1093.932)">
    <g id="Group_143774" data-name="Group 143774" transform="translate(1050.446 -1093.932)">
      <path id="Path_185591" data-name="Path 185591" d="M1093.337-1022.956c-1.1-2.636-2.072-5.185-3.209-7.661-1.5-3.264-3.063-6.5-4.719-9.69a8.644,8.644,0,0,1-.8-6.411,13.344,13.344,0,0,0,.035-5.375c-.434-3.1-.616-6.249-1.3-9.287-.725-3.2-1.917-6.292-2.909-9.43-.078-.247-.184-.486-.317-.835l1.526-.626a23.159,23.159,0,0,0-5.038-7.052,28.625,28.625,0,0,0-14.582-7.277c-2.833-.574-5.737-.812-8.612-1.169a3.1,3.1,0,0,1-2.957-3.209,3.13,3.13,0,0,1,3.434-2.946,53.423,53.423,0,0,1,16.1,3.243c9.58,3.7,15.853,10.508,19.064,20.2a1.2,1.2,0,0,1-.242,1.017,2.217,2.217,0,0,0-.513,2.368c.79,3.563,1.44,7.159,2.045,10.759a60.766,60.766,0,0,1,.775,6.555,16.092,16.092,0,0,1-.393,3.88,4.768,4.768,0,0,0,.386,3.138c2.322,4.844,4.634,9.7,6.8,14.608a24.309,24.309,0,0,1,1.474,5.214c.566,2.933-.827,5.028-3.721,5.82a21.638,21.638,0,0,1-2.9.589c-.812.106-1.155.483-.931,1.25a5.789,5.789,0,0,1-.975,5.767.892.892,0,0,0-.027.737,5.113,5.113,0,0,1-.616,4.631c-.642,1.075-1.388,2.089-2,3.178a2.029,2.029,0,0,0-.221,1.338,15.2,15.2,0,0,1,.195,7.632,9.794,9.794,0,0,1-7.933,7.3c-2.821.6-5.751.687-8.626,1.055-1.633.209-3.262.473-4.875.8a6.567,6.567,0,0,0-5.474,4.968q-1.46,5.736-2.55,11.565c-.73,3.885-1.252,7.81-1.86,11.718a3.116,3.116,0,0,1-2.436,2.792,2.915,2.915,0,0,1-3.248-1.348,3.2,3.2,0,0,1-.487-1.863c1.251-7.74,2.047-15.564,4.107-23.156a14.762,14.762,0,0,1,5-8.224,16.185,16.185,0,0,1,7.966-2.984c3.07-.413,6.163-.657,9.245-.985a13.787,13.787,0,0,0,1.659-.258c2.646-.615,3.877-2.21,3.663-4.929a18.164,18.164,0,0,0-.69-3.477,4.815,4.815,0,0,1,.731-4.495c.318-.42.6-.87.911-1.295.883-1.2,1.645-2.332,1.2-4.029a5.153,5.153,0,0,1,1-4.022,2.172,2.172,0,0,0,.213-1.458,7.387,7.387,0,0,1,1.633-6.188c1.139-1.486,2.785-1.9,4.515-2.142C1092.262-1022.717,1092.672-1022.822,1093.337-1022.956Z" transform="translate(-1050.446 1093.932)" fill="#12263f"/>
      <path id="Path_185592" data-name="Path 185592" d="M1452.837-788.873c-.2,11.988-5.025,23.871-14.676,33.756a3.26,3.26,0,0,1-4.767.222,3.236,3.236,0,0,1,.067-4.764,43.842,43.842,0,0,0,11.532-20.416,43.914,43.914,0,0,0,1.07-15.12,43.578,43.578,0,0,0-12.586-26.631,3.252,3.252,0,0,1-.1-4.768,3.325,3.325,0,0,1,4.779.2,49.556,49.556,0,0,1,11.393,17.656A53.976,53.976,0,0,1,1452.837-788.873Z" transform="translate(-1356.738 880.277)" fill="#12263f"/>
      <path id="Path_185593" data-name="Path 185593" d="M1397.414-749.752a36.066,36.066,0,0,1-10.043,25.088,3.768,3.768,0,0,1-3.252,1.552,3.141,3.141,0,0,1-2.738-2.132,3.144,3.144,0,0,1,.786-3.465,29.739,29.739,0,0,0,5.216-7.058,29.7,29.7,0,0,0,2.006-23.3,29.371,29.371,0,0,0-7.191-11.663,3.249,3.249,0,0,1,1.4-5.512,3.294,3.294,0,0,1,3.4,1.062,35.778,35.778,0,0,1,7.272,10.749A36.528,36.528,0,0,1,1397.414-749.752Z" transform="translate(-1315.662 839.261)" fill="#12263f"/>
      <path id="Path_185594" data-name="Path 185594" d="M1342.091-708.5a21.71,21.71,0,0,1-6.2,15.088,3.309,3.309,0,0,1-4.842.3,3.3,3.3,0,0,1,.136-4.843,15.378,15.378,0,0,0,0-21.461,3.294,3.294,0,0,1-.146-4.844,3.328,3.328,0,0,1,4.914.342A22.068,22.068,0,0,1,1342.091-708.5Z" transform="translate(-1274.675 798.224)" fill="#12263f"/>
    </g>
  </g>
</svg>
