<svg xmlns="http://www.w3.org/2000/svg" width="85.899" height="108.757" viewBox="0 0 85.899 108.757">
  <g id="_760qXR" data-name="760qXR" transform="translate(69.105 843.801)">
    <g id="Group_143771" data-name="Group 143771" transform="translate(-69.105 -843.801)">
      <path id="Path_185546" data-name="Path 185546" d="M8.19-751.878v4.712c0,.587.006,1.175,0,1.762a1.572,1.572,0,0,1-1.748,1.755c-1.787.017-3.575,0-5.362.006-.223,0-.445.027-.746.047v3.928c0,.97.013,1.941,0,2.911a1.6,1.6,0,0,1-1.666,1.708c-.153.008-.306,0-.46,0H-66.909c-.128,0-.255,0-.383,0a1.592,1.592,0,0,1-1.806-1.777c-.015-1.583,0-3.166,0-4.749q0-7.844,0-15.688,0-28.76,0-57.52,0-5.312,0-10.624c0-1.512.5-2.008,2.027-2.009,1.657,0,3.315,0,5.065,0,.017-.3.043-.57.044-.837,0-1.787,0-3.575.006-5.362.006-1.334.578-1.9,1.924-1.9,2.193,0,4.385,0,6.69,0v-1.114q0-2.6,0-5.209c0-1.4.549-1.956,1.942-1.956q12.179,0,24.359,0H14.473c.23,0,.46-.006.689,0a1.529,1.529,0,0,1,1.622,1.645c-.008,5.871-.043,11.742-.051,17.614,0,2.293.056,4.587.057,6.88q.008,27.152,0,54.3,0,4.891-.053,9.782c-.014,1.134-.585,1.642-1.749,1.649-1.992.012-3.983,0-5.975.009C8.767-751.913,8.52-751.893,8.19-751.878ZM-66-824.292v8.032q0,38.5,0,76.993c0,1.093,0,1.094,1.048,1.094q30.606,0,61.213.019c.8,0,.963-.228.962-.985q-.032-26.791-.017-53.583,0-4.635,0-9.27v-.941H-3.826c-4.6,0-9.193.008-13.79,0a5.425,5.425,0,0,1-5.637-5.657q0-6.2.008-12.4c0-1.067,0-2.135,0-3.293Zm7.2-3.123h1.007q17.81,0,35.619-.011a2.446,2.446,0,0,1,1.9.785c1.668,1.712,3.373,3.388,5.063,5.078q7.367,7.363,14.74,14.719a2.573,2.573,0,0,1,.816,1.969c-.019,6.3-.01,12.6-.01,18.907q0,19.112,0,38.224v.9H5.1v-61.164c0-7.813-.009-15.627.015-23.44,0-.713-.152-.955-.914-.954q-31.1.03-62.2.017c-.267,0-.534.034-.8.051Zm72.451-13.208h-63.82v5.1H6.041c1.688,0,2.149.459,2.149,2.125v46.948q0,15.167,0,30.334v1.005h5.462ZM-20.1-822c-.031.294-.058.436-.058.577,0,4.308-.013,8.616,0,12.923a2.336,2.336,0,0,0,2.62,2.439q6.238,0,12.476,0c.238,0,.475-.033.873-.063Z" transform="translate(69.105 843.801)" fill="#12263f"/>
      <path id="Path_185547" data-name="Path 185547" d="M-2.521-652.395q-6.894,0-13.787,0a2.73,2.73,0,0,1-3.024-2.966q-.028-3.715-.008-7.43a2.76,2.76,0,0,1,3.08-3.076q11.635.009,23.269.03c1.678,0,3.363-.061,5.032.073A2.5,2.5,0,0,1,14.4-663.14q.056,4.02,0,8.042a2.69,2.69,0,0,1-2.831,2.7Q4.525-652.382-2.521-652.395Zm-13.653-10.324v7.171c.243.024.44.061.638.061q13.056,0,26.112.015c.593,0,.73-.206.722-.755-.028-1.94-.009-3.88-.014-5.82,0-.218-.039-.437-.062-.672Z" transform="translate(26.972 693.134)" fill="#12263f"/>
      <path id="Path_185548" data-name="Path 185548" d="M115.762-492.65q-7.623,0-15.245,0a7.154,7.154,0,0,1-.841-.027A1.416,1.416,0,0,1,98.321-494a1.492,1.492,0,0,1,1.037-1.6,3.787,3.787,0,0,1,1.126-.174q14.326-.013,28.652-.005c.839,0,1.678-.007,2.517.008a1.581,1.581,0,0,1,1.722,1.554,1.739,1.739,0,0,1-1.755,1.555c-3.933.01-7.865.005-11.8.006Z" transform="translate(-72.658 549.103)" fill="#12263f"/>
      <path id="Path_185549" data-name="Path 185549" d="M115.627-362.136H131.25a4.98,4.98,0,0,1,.535.015,1.524,1.524,0,0,1,1.386,1.476,1.553,1.553,0,0,1-1.29,1.575,4.63,4.63,0,0,1-.764.029q-15.546,0-31.092-.007a2.911,2.911,0,0,1-1.043-.155,1.485,1.485,0,0,1-.886-1.688,1.491,1.491,0,0,1,1.373-1.229c.253-.023.51-.015.765-.015Z" transform="translate(-72.453 435.942)" fill="#12263f"/>
      <path id="Path_185550" data-name="Path 185550" d="M115.655-225.744q-7.772,0-15.544-.007a2.874,2.874,0,0,1-1.122-.146,1.424,1.424,0,0,1-.875-1.622,1.487,1.487,0,0,1,1.312-1.3,4.182,4.182,0,0,1,.764-.023h30.858c.128,0,.255,0,.383,0a1.6,1.6,0,0,1,1.759,1.6,1.554,1.554,0,0,1-1.761,1.5Q123.542-225.735,115.655-225.744Z" transform="translate(-72.473 323.082)" fill="#12263f"/>
      <path id="Path_185551" data-name="Path 185551" d="M165.772-263.915q5.849,0,11.7,0a1.558,1.558,0,0,1,1.707,1.558,1.518,1.518,0,0,1-1.346,1.511,7.5,7.5,0,0,1-.841.02h-22.5c-.179,0-.357,0-.536-.006a1.586,1.586,0,0,1-1.552-1.564,1.525,1.525,0,0,1,1.6-1.5q5.883-.01,11.767,0Z" transform="translate(-118.461 352.772)" fill="#12263f"/>
      <path id="Path_185552" data-name="Path 185552" d="M165.8-397.323q5.666,0,11.332,0a5.186,5.186,0,0,1,.763.036,1.482,1.482,0,0,1,1.3,1.387,1.49,1.49,0,0,1-1.071,1.577,3.584,3.584,0,0,1-.981.1q-11.332.008-22.665,0c-.128,0-.255,0-.383,0a1.607,1.607,0,0,1-1.666-1.548,1.542,1.542,0,0,1,1.651-1.542c3.9-.017,7.81-.007,11.715-.007Z" transform="translate(-118.487 465.737)" fill="#12263f"/>
      <path id="Path_185553" data-name="Path 185553" d="M165.839-530.863h11.183c.23,0,.46-.01.689.005a1.548,1.548,0,0,1,1.511,1.447,1.522,1.522,0,0,1-1.312,1.54c-.983.1-1.978.1-2.969.1q-10.3.011-20.6,0c-1.1,0-1.706-.439-1.858-1.318a1.585,1.585,0,0,1,1.717-1.774Q160.018-530.872,165.839-530.863Z" transform="translate(-118.508 578.818)" fill="#12263f"/>
      <path id="Path_185554" data-name="Path 185554" d="M-1.216-262.593l2.491-5.147c.167-.344.311-.7.508-1.028a1.526,1.526,0,0,1,1.993-.611,1.488,1.488,0,0,1,.756,2c-1.416,3-2.843,5.989-4.32,8.955a1.486,1.486,0,0,1-2.636.09c-.814-1.353-1.549-2.756-2.26-4.167a1.476,1.476,0,0,1,.705-2.012,1.5,1.5,0,0,1,2,.562C-1.725-263.572-1.528-263.157-1.216-262.593Z" transform="translate(14.695 357.53)" fill="#12263f"/>
      <path id="Path_185555" data-name="Path 185555" d="M-1.13-403.474c.508-1.045.962-1.977,1.414-2.912.488-1.009.961-2.026,1.464-3.027a1.554,1.554,0,0,1,2.092-.844,1.56,1.56,0,0,1,.687,2.205c-1.37,2.874-2.758,5.74-4.139,8.608a1.517,1.517,0,0,1-1.365.951,1.518,1.518,0,0,1-1.491-.873c-.693-1.275-1.4-2.541-2.077-3.827a1.567,1.567,0,0,1,.6-2.182,1.581,1.581,0,0,1,2.148.718C-1.587-404.309-1.4-403.952-1.13-403.474Z" transform="translate(14.617 476.813)" fill="#12263f"/>
      <path id="Path_185556" data-name="Path 185556" d="M-.827-544.279l2.469-5.1a12.133,12.133,0,0,1,.542-1.094,1.557,1.557,0,0,1,2.009-.572,1.5,1.5,0,0,1,.739,1.948c-.8,1.705-1.661,3.378-2.483,5.072-.554,1.14-1.116,2.278-1.611,3.445a1.754,1.754,0,0,1-1.453,1.286,1.616,1.616,0,0,1-1.638-1.022c-.633-1.191-1.282-2.374-1.915-3.565a1.69,1.69,0,0,1,.511-2.279,1.57,1.57,0,0,1,2.22.814C-1.271-545.034-1.087-544.733-.827-544.279Z" transform="translate(14.312 596.04)" fill="#12263f"/>
    </g>
  </g>
</svg>
