<svg xmlns="http://www.w3.org/2000/svg" width="125.14" height="131.123" viewBox="0 0 125.14 131.123">
  <g id="OLCJHf" transform="translate(-449.644 1012.57)">
    <g id="Group_143772" data-name="Group 143772" transform="translate(450.144 -1012.072)">
      <path id="Path_185557" data-name="Path 185557" d="M491.739-969.19h-39.7v66.656c.484.027.9.07,1.308.07,6.353,0,12.706-.017,19.059.023,1.019.006,1.427-.232,1.387-1.33-.08-2.192-.024-4.389-.024-6.714-.557-.03-1-.075-1.45-.076q-6.861-.009-13.723-.006a2.369,2.369,0,0,1-1-.036,5.672,5.672,0,0,1-1.036-.9,5.425,5.425,0,0,1,1-.93c.26-.145.663-.041,1-.041q6.671,0,13.341,0c2.141,0,1.848.2,1.866-1.928.012-1.385,0-2.769,0-4.276H458.493c-.339,0-.751.11-1-.043a5.1,5.1,0,0,1-.94-.984c.321-.273.63-.764.967-.784,1.52-.089,3.047-.049,4.572-.05,3.473,0,6.947-.038,10.419.022,1.027.018,1.318-.317,1.273-1.305-.073-1.6-.02-3.2-.02-5-2.491,0-4.845,0-7.2,0-2.753,0-5.506.02-8.258.02-.748,0-1.752.152-1.71-.953.038-1.009.992-.951,1.768-.95q7.384.009,14.769.007c.167,0,.333-.033.585-.06v-6.2c-2.714,0-5.324,0-7.934,0q-3.87-.006-7.74-.023c-.169,0-.4.056-.5-.03-.351-.3-.659-.647-.983-.977.356-.233.707-.658,1.07-.669,2.574-.077,5.152-.082,7.728-.084,2.451,0,4.9.054,7.351.012.35-.006.981-.412.992-.655.084-1.846.046-3.7.046-5.663h-1.545q-6.861,0-13.722,0a2.278,2.278,0,0,1-1-.067,4.769,4.769,0,0,1-.93-.865,5.409,5.409,0,0,1,1.017-.885,2.4,2.4,0,0,1,1-.034c4.659,0,9.318-.023,13.977.018.938.008,1.288-.255,1.234-1.219a37.6,37.6,0,0,1,0-3.937c.043-.891-.259-1.163-1.152-1.156-4.7.039-9.4.018-14.1.017-.339,0-.744.11-1-.036a5.159,5.159,0,0,1-.969-.942,4.674,4.674,0,0,1,.953-.809,2.53,2.53,0,0,1,1-.034h13.85c.662,0,1.322.133,1.563-.835.068-.271.826-.5,1.278-.521,1.437-.067,2.883.031,4.317-.062a2.68,2.68,0,0,0,1.426-.694c1.4-1.209,2.736-2.482,4.1-3.731l-.279-.461H458.531c-.339,0-.743.111-1-.035a5.2,5.2,0,0,1-.976-.936,4.62,4.62,0,0,1,.948-.815,2.5,2.5,0,0,1,1-.035c9.021,0,18.043.011,27.064-.025a5,5,0,0,0,1.976-.555c.951-.44,1.509-.068,1.543,1.17a35.837,35.837,0,0,0,1.781,10.985c5.323,15.136,15.888,24.072,31.779,26.59,1.457.231,2.957.177,4.426.344a1.942,1.942,0,0,1,1.225.654c.123.162-.32.721-.453,1.119a4.612,4.612,0,0,0-.347,1.391q-.03,15.565-.018,31.13a29.959,29.959,0,0,1-.092,3.3c-.039.353-.5.925-.794.942-2.188.127-4.382.157-6.575.182-2.1.025-4.209.022-6.313.006-2.616-.02-5.231-.084-7.847-.094-1.982-.008-3.964.04-5.946.06-1.645.017-3.289.042-4.934.044q-6.723.007-13.446,0c-2.075,0-4.151-.029-6.226.013-1.135.023-1.575-.414-1.564-1.577.043-4.7.019-9.4.014-14.1,0-.289-.039-.578-.074-1.066H452.233c-2.076,0-2.088-.011-2.089-2.023q0-14.67,0-29.34,0-18.668.008-37.337c0-1.7.067-1.768,1.814-1.768q17.662-.005,35.323-.007c.555,0,1.218.218,1.418-.651.161-.7.359-1.617,1.319-1.247.416.161.563,1.015.978,1.844.51.136,1.244.328,1.632-.924a34.917,34.917,0,0,1,8.581-14.308c6.091-6.212,13.371-10.13,22.021-10.958,14.6-1.4,26.528,3.851,34.621,16.091,8.538,12.913,8.74,26.62.486,39.716-7.874,12.493-19.763,18.4-34.521,16.862-15.357-1.6-25.708-10.284-31.035-24.732a33.793,33.793,0,0,1-1.268-18.4C491.6-968.227,491.653-968.646,491.739-969.19Zm36.628-26.39c0,1.967.052,3.867-.042,5.76-.02.4-.578.765-.887,1.147-.25-.378-.684-.742-.714-1.137-.094-1.221-.033-2.453-.033-3.681,0-2.317,0-2.317-2.278-2.133-.084.007-.169.015-.253.025a34.457,34.457,0,0,0-17.3,6.671c-1.09.833-2.15,1.707-3.494,2.776.628.5,1.056.778,1.413,1.132,1.05,1.04,2.116,2.071,3.072,3.194.234.275.072.888.092,1.346a4.86,4.86,0,0,1-1.23-.126c-.288-.1-.5-.433-.737-.664l-3.722-3.577a34.886,34.886,0,0,0-9.471,22.913h1.382c1.44,0,2.879.009,4.319,0,.668,0,1.4.027,1.405.883.008.923-.744.983-1.467.969-.635-.013-1.27,0-1.905,0h-3.666c0,.466-.012.717,0,.968A34.14,34.14,0,0,0,500.667-939a1.977,1.977,0,0,0,3.307.182c.785-.771,1.558-1.555,2.336-2.333.462-.462.975-.994,1.615-.386.679.646.214,1.216-.317,1.71l-4.154,3.859A34.883,34.883,0,0,0,526.52-926.3c.027-.561.066-1.016.069-1.471.01-1.524-.045-3.052.049-4.571.023-.37.517-.711.794-1.065a5.35,5.35,0,0,1,.979,1.069c.157.3.035.746.036,1.127,0,1.6,0,3.19,0,4.924a34.926,34.926,0,0,0,23.164-9.761c-1.476-1.343-2.808-2.58-4.171-3.781-.511-.451-1.042-.973-.516-1.58.605-.7,1.209-.153,1.716.342,1.344,1.312,2.692,2.62,4.129,4.019a35.729,35.729,0,0,0,9.427-23.037c-2.061,0-3.961.056-5.852-.043-.431-.023-.834-.583-1.249-.9.419-.3.823-.836,1.26-.865,1.6-.107,3.216-.085,4.824-.032.878.029,1.066-.31,1.008-1.128a33.992,33.992,0,0,0-4.823-15.6c-1.33-2.174-2.948-4.173-4.492-6.331-.413.372-.571.5-.716.646-1.233,1.221-2.428,2.486-3.724,3.636-.3.264-.942.136-1.427.188a5.231,5.231,0,0,1,.164-1.447c.147-.362.563-.616.86-.917l3.237-3.278C546.471-991.527,535.265-996.158,528.366-995.58ZM492.2-941.615l-.279.15c0,2.92-.042,5.841.02,8.759.026,1.2-.357,1.672-1.6,1.646-3.005-.062-6.013-.056-9.019,0-1.163.021-1.592-.43-1.577-1.566.038-2.994.009-5.988.019-8.982,0-1.492.289-1.7,1.831-1.676,2.666.033,5.332.019,8-.01,1.017-.011,1.356-.627,1.019-1.607-.781-2.277-1.586-4.548-2.269-6.855-.224-.758-.645-.751-1.211-.751-3.388,0-6.776,0-10.164.006-.412,0-.825.039-1.337.065v66.667h49.945v-35.041a39.8,39.8,0,0,1-19.4-6.058A40.9,40.9,0,0,1,492.2-941.615Zm-3.106.223h-7.357v8.381h8.293v-6.219c-.315.406-.5.612-.647.838-.886,1.337-1.739,2.7-2.655,4.013-.668.96-1.2.961-1.84,0-.939-1.406-1.856-2.83-2.684-4.3-.184-.327.043-.886.081-1.338a3.967,3.967,0,0,1,1.3.392,4.126,4.126,0,0,1,.776,1.137c.446.693.891,1.387,1.436,2.235Zm-1.355-13.1-.472-3.826-4.143,3.826Z" transform="translate(-450.144 1001.253)" fill="#12263f" stroke="#12263f" stroke-width="1"/>
      <path id="Path_185558" data-name="Path 185558" d="M506.468-527.668c-8.764,0-17.528.009-26.292-.021a5.117,5.117,0,0,1-2.053-.462c-2.19-1-4.354-2.068-6.495-3.173a1.742,1.742,0,0,1-.875-1.078c-.039-.272.477-.747.845-.935q3.442-1.766,6.938-3.423a3.5,3.5,0,0,1,1.459-.294q26.356-.021,52.711-.017a4.749,4.749,0,0,1,4.956,4.827c.091,2.613-2.158,4.574-5.031,4.576Q519.55-527.663,506.468-527.668Zm-26.139-1.916h47.98v-5.562h-47.98Zm49.991.044a28.362,28.362,0,0,0,3.029-.021,2.744,2.744,0,0,0,2.394-2.265,2.451,2.451,0,0,0-1.5-2.991,11.9,11.9,0,0,0-3.43-.4c-.153-.008-.468.454-.475.7C530.3-532.918,530.32-531.322,530.32-529.54Zm-56.58-2.8,4.523,2.188v-4.41Z" transform="translate(-465.514 657.792)" fill="#12263f" stroke="#12263f" stroke-width="1"/>
      <path id="Path_185559" data-name="Path 185559" d="M792.293-973.927c1.637-1.725,3.059-3.225,4.484-4.724.456-.479.986-.989,1.617-.4.668.626.231,1.2-.3,1.719-1.9,1.875-3.753,3.789-5.678,5.634a5.3,5.3,0,0,1-1.494.712,4.893,4.893,0,0,1-.6-1.528,38.466,38.466,0,0,0-32.1-37.2c-1.912-.322-3.872-.38-5.812-.522-.676-.05-1.359-.069-1.338-.954s.731-.9,1.393-.88a39.521,39.521,0,0,1,30.148,14.236,38.957,38.957,0,0,1,9.462,23.081C792.089-974.634,792.138-974.519,792.293-973.927Z" transform="translate(-674.595 1012.072)" fill="#12263f" stroke="#12263f" stroke-width="1"/>
      <path id="Path_185560" data-name="Path 185560" d="M776.893-703.613c-.212-.2-.72-.469-.758-.789a1.29,1.29,0,0,1,.623-1.03,4.049,4.049,0,0,1,1.835-.372,1.294,1.294,0,0,1,.993.7,1.246,1.246,0,0,1-.62,1.012A10.112,10.112,0,0,1,776.893-703.613Z" transform="translate(-693.284 783.643)" fill="#12263f" stroke="#12263f" stroke-width="1"/>
      <path id="Path_185561" data-name="Path 185561" d="M899.309-817.138c.008-1.627.749-3.019,1.39-2.84a1.411,1.411,0,0,1,.851.975c.1,1.243-.716,2.651-1.377,2.506C899.79-816.58,899.48-817,899.309-817.138Z" transform="translate(-785.155 868.809)" fill="#12263f" stroke="#12263f" stroke-width="1"/>
      <path id="Path_185562" data-name="Path 185562" d="M856.477-744.547c-.8.566-1.627,1.174-2.486,1.735-.089.059-.435-.106-.531-.253-.784-1.2.407-1.582.968-2.195a1.048,1.048,0,0,1,1.73-.074A3.723,3.723,0,0,1,856.477-744.547Z" transform="translate(-750.764 813.44)" fill="#12263f" stroke="#12263f" stroke-width="1"/>
      <path id="Path_185563" data-name="Path 185563" d="M800.87-710.939c-.332.4-.507.769-.8.916a5.776,5.776,0,0,1-1.782.615,1.254,1.254,0,0,1-1.007-.474c-.146-.22-.042-.9.139-.992a10.63,10.63,0,0,1,2.475-.85C800.133-711.771,800.477-711.272,800.87-710.939Z" transform="translate(-709.009 788.059)" fill="#12263f" stroke="#12263f" stroke-width="1"/>
      <path id="Path_185564" data-name="Path 185564" d="M610.388-920.7l-2.062,2.552c-.3-.287-.791-.538-.85-.868-.158-.874,1.023-2.708,1.6-2.584C609.445-921.518,609.755-921.148,610.388-920.7Z" transform="translate(-567.48 944.596)" fill="#12263f" stroke="#12263f" stroke-width="1"/>
      <path id="Path_185565" data-name="Path 185565" d="M884.6-779l-2.393,2.315c-.267-.316-.726-.611-.761-.951-.083-.8,1.361-2.523,1.9-2.351C883.716-779.866,884-779.488,884.6-779Z" transform="translate(-771.83 838.976)" fill="#12263f" stroke="#12263f" stroke-width="1"/>
      <path id="Path_185566" data-name="Path 185566" d="M820.92-719.438a11.6,11.6,0,0,1-1.668,1.088,2.728,2.728,0,0,1-1.5.172c-.157-.027-.372-.967-.271-1.03a13.933,13.933,0,0,1,2.6-1.336c.289-.106.754.266,1.139.419Z" transform="translate(-724.103 794.649)" fill="#12263f" stroke="#12263f" stroke-width="1"/>
      <path id="Path_185567" data-name="Path 185567" d="M894.317-798.723c-.181,1.573-1.1,2.862-1.75,2.62a1.36,1.36,0,0,1-.724-1.055c.1-1.3,1.051-2.537,1.688-2.317C893.9-799.346,894.161-798.882,894.317-798.723Z" transform="translate(-779.587 853.524)" fill="#12263f" stroke="#12263f" stroke-width="1"/>
      <path id="Path_185568" data-name="Path 185568" d="M618.891-940.649c.136.062.561.188.552.261a5.671,5.671,0,0,1-.422,2.039c-.245.443-.893.684-1.4.941-.088.045-.435-.24-.538-.438C616.744-938.5,618.032-940.591,618.891-940.649Z" transform="translate(-574.616 958.801)" fill="#12263f" stroke="#12263f" stroke-width="1"/>
      <path id="Path_185569" data-name="Path 185569" d="M682.191-995.9a15.923,15.923,0,0,1-1.955,1.195,2.564,2.564,0,0,1-1.412.1c-.156-.029-.335-.574-.3-.861.08-.729,2.338-1.8,2.934-1.405C681.7-996.706,681.841-996.375,682.191-995.9Z" transform="translate(-620.477 1000.798)" fill="#12263f" stroke="#12263f" stroke-width="1"/>
      <path id="Path_185570" data-name="Path 185570" d="M903.371-839.286a4.32,4.32,0,0,1,.225-1.354c.179-.343.625-.545.954-.81a4.027,4.027,0,0,1,.808,1.09,1.778,1.778,0,0,1-.162,1.224,8.567,8.567,0,0,1-1.032,1.312l-1.044-1.236Z" transform="translate(-787.997 884.813)" fill="#12263f" stroke="#12263f" stroke-width="1"/>
      <path id="Path_185571" data-name="Path 185571" d="M699.22-1002.143c-.433-.618-.83-.948-.9-1.335-.108-.625,1.431-1.546,2.5-1.419.366.043.675.569,1.009.874Z" transform="translate(-635.245 1006.729)" fill="#12263f" stroke="#12263f" stroke-width="1"/>
      <path id="Path_185572" data-name="Path 185572" d="M596.819-877.4a6.92,6.92,0,0,1,.334-1.842,1.376,1.376,0,0,1,1.019-.635c.25,0,.684.521.706.833a4.875,4.875,0,0,1-.244,1.981c-.115.315-.834.74-.994.643A3.29,3.29,0,0,1,596.819-877.4Z" transform="translate(-559.542 913.472)" fill="#12263f" stroke="#12263f" stroke-width="1"/>
      <path id="Path_185573" data-name="Path 185573" d="M720.03-1007.735c-.212-.216-.713-.5-.764-.851a1.276,1.276,0,0,1,.688-.978,4.063,4.063,0,0,1,1.836-.326,1.259,1.259,0,0,1,.935.753c.051.279-.365.8-.7.957A9.775,9.775,0,0,1,720.03-1007.735Z" transform="translate(-650.867 1010.45)" fill="#12263f" stroke="#12263f" stroke-width="1"/>
      <path id="Path_185574" data-name="Path 185574" d="M839.747-731.183c.028,1.141-1.907,2.619-2.564,2.206-.31-.2-.551-1.146-.368-1.355a4.756,4.756,0,0,1,1.848-1.225C838.969-731.674,839.465-731.291,839.747-731.183Z" transform="translate(-738.497 802.865)" fill="#12263f" stroke="#12263f" stroke-width="1"/>
      <path id="Path_185575" data-name="Path 185575" d="M662.5-987.455c.394.36.764.555.885.851a.967.967,0,0,1-.178.894,9.635,9.635,0,0,1-1.933,1.161,1.058,1.058,0,0,1-.9-.249c-.162-.144-.246-.675-.131-.784C660.93-986.226,661.685-986.8,662.5-987.455Z" transform="translate(-606.807 993.711)" fill="#12263f" stroke="#12263f" stroke-width="1"/>
      <path id="Path_185576" data-name="Path 185576" d="M632.229-956.945c-.652.775-1.232,1.529-1.9,2.2-.128.128-.687.018-.879-.161s-.364-.7-.248-.879a13.426,13.426,0,0,1,1.581-1.955c.133-.138.579-.1.809.014S631.935-957.326,632.229-956.945Z" transform="translate(-583.668 971.616)" fill="#12263f" stroke="#12263f" stroke-width="1"/>
      <path id="Path_185577" data-name="Path 185577" d="M871.635-760.907a30.474,30.474,0,0,1-2.28,2.166c-.086.068-.663-.483-1.013-.748.643-.726,1.259-1.481,1.965-2.14C870.4-761.711,870.961-761.283,871.635-760.907Z" transform="translate(-762.059 825.286)" fill="#12263f" stroke="#12263f" stroke-width="1"/>
      <path id="Path_185578" data-name="Path 185578" d="M644.467-969.757c-.252-.747-.641-1.324-.491-1.568a7.694,7.694,0,0,1,1.614-1.743.947.947,0,0,1,.922.009c.242.207.5.826.385.951C646.247-971.37,645.493-970.724,644.467-969.757Z" transform="translate(-594.689 983.067)" fill="#12263f" stroke="#12263f" stroke-width="1"/>
      <path id="Path_185579" data-name="Path 185579" d="M738.724-933.883c0,2.412.018,4.823-.012,7.235-.008.668.107,1.05.851,1.282a5.17,5.17,0,0,1,3.552,3.514c.264.851.737.957,1.492.953,4.612-.024,9.223-.011,13.834-.008a2.827,2.827,0,0,1,1.127.059c.322.151.727.54.733.833a1.3,1.3,0,0,1-.683.884,2.6,2.6,0,0,1-1.123.074c-4.612,0-9.223.017-13.835-.015-.8-.005-1.252.133-1.565,1a5.646,5.646,0,0,1-5.941,3.79,5.809,5.809,0,0,1-5.046-4.949,5.6,5.6,0,0,1,3.843-6.133,1.182,1.182,0,0,0,.928-1.363c-.02-4.814,0-9.628,0-14.442,0-.664-.012-1.391.871-1.4.927-.006.981.73.978,1.455C738.718-938.7,738.724-936.291,738.724-933.883Zm-4.811,13.87a3.939,3.939,0,0,0,3.856,3.911,3.907,3.907,0,0,0,3.842-3.792,3.924,3.924,0,0,0-3.787-3.974A3.948,3.948,0,0,0,733.913-920.013Z" transform="translate(-660.422 960.229)" fill="#12263f" stroke="#12263f" stroke-width="1"/>
      <path id="Path_185580" data-name="Path 185580" d="M572.67-704.364c-1.522,0-3.044-.027-4.565.011-.959.025-1.417-.37-1.415-1.333.009-3.17.018-6.34,0-9.511,0-.958.391-1.375,1.371-1.363,2.62.03,5.243-.047,7.862.036a1.912,1.912,0,0,0,2-1.136,13.4,13.4,0,0,1,1.512-2.334c.252-.3.827-.333,1.256-.488.1.479.209.956.282,1.439.014.1-.107.227-.19.32-1.809,2.038-2.143,4.451-1.961,7.07.135,1.935-.012,3.888.041,5.831.03,1.11-.422,1.509-1.505,1.471C575.8-704.406,574.235-704.365,572.67-704.364Zm4.32-7.874-.23-.1q-1.394,2.17-2.788,4.339c-.922,1.433-1.422,1.436-2.357.025s-1.876-2.824-2.941-4.427v6.09h8.317Zm-8.352-.943c1.329-.552,1.411-.536,2.177.6.631.933,1.243,1.88,1.969,2.979l3.159-5.029h-7.3Z" transform="translate(-537.071 794.588)" fill="#12263f" stroke="#12263f" stroke-width="1"/>
      <path id="Path_185581" data-name="Path 185581" d="M572.717-613.929c-1.566,0-3.131-.018-4.7.007-.921.015-1.313-.428-1.312-1.309q.005-4.823,0-9.647c0-.829.366-1.248,1.227-1.245q4.824.018,9.647,0c.907,0,1.3.378,1.289,1.3q-.034,4.824,0,9.647c.006.947-.46,1.267-1.336,1.257C575.933-613.943,574.325-613.929,572.717-613.929Zm4.256-1.9v-8.388h-8.278v8.388Z" transform="translate(-537.084 724.211)" fill="#12263f" stroke="#12263f" stroke-width="1"/>
      <path id="Path_185582" data-name="Path 185582" d="M636.863-605.919q5.841,0,11.683,0c.338,0,.746-.1,1,.051a1.64,1.64,0,0,1,.786.939c.037.238-.423.646-.745.818a2.288,2.288,0,0,1-1,.066q-11.936.007-23.873.008c-.212,0-.479.071-.624-.029a10.873,10.873,0,0,1-1.026-.894,4.612,4.612,0,0,1,.99-.914,2.756,2.756,0,0,1,1.128-.047Q631.021-605.92,636.863-605.919Z" transform="translate(-579.115 709.167)" fill="#12263f" stroke="#12263f" stroke-width="1"/>
      <path id="Path_185583" data-name="Path 185583" d="M636.887-682.939q-5.909,0-11.818,0c-.339,0-.745.1-1-.047a1.653,1.653,0,0,1-.8-.935c-.04-.244.405-.662.724-.842a2.184,2.184,0,0,1,1-.08q11.817,0,23.635,0c.212,0,.468-.076.627.016.456.264,1.18.544,1.242.911.138.822-.593.978-1.283.978Z" transform="translate(-579.271 768.03)" fill="#12263f" stroke="#12263f" stroke-width="1"/>
    </g>
  </g>
</svg>
