<svg xmlns="http://www.w3.org/2000/svg" width="53.155" height="53.807" viewBox="0 0 53.155 53.807">
  <g id="sSyGII" transform="translate(1420.115 974.58)">
    <g id="Group_143684" data-name="Group 143684" transform="translate(-1420.115 -974.58)">
      <path id="Path_185319" data-name="Path 185319" d="M-1254.376-896.961l-.866,2.917a18.881,18.881,0,0,0-2.62-.8,11.754,11.754,0,0,0-2.934-.093,2.127,2.127,0,0,0-2,1.7,1.976,1.976,0,0,0,1.14,2.337,35.447,35.447,0,0,0,3.284,1.559,9.072,9.072,0,0,1,3.527,2.293,5.6,5.6,0,0,1-1.106,8.214,7.774,7.774,0,0,1-1.469.782c-.51.212-1.058.336-1.687.529v3.286h-2.711V-877.3c-.965-.165-1.87-.265-2.745-.485a12.834,12.834,0,0,1-2.125-.791.732.732,0,0,1-.336-.612c.2-.884.481-1.75.713-2.551,1.314.4,2.563.867,3.854,1.123a7.1,7.1,0,0,0,2.553-.038,2.489,2.489,0,0,0,2.257-2.136,2.694,2.694,0,0,0-1.6-2.7c-1.057-.534-2.189-.917-3.256-1.433a13.1,13.1,0,0,1-2.424-1.394,5.113,5.113,0,0,1,.251-8.314,9.891,9.891,0,0,1,2.469-1.112c.476-.162.637-.348.612-.838-.041-.806-.011-1.615-.011-2.482h2.684c0,.786.036,1.543-.012,2.294-.036.561.145.751.712.772A9.018,9.018,0,0,1-1254.376-896.961Z" transform="translate(1290.317 912.25)" fill="#fff"/>
      <path id="Path_185320" data-name="Path 185320" d="M-1163.755-960.014a7.271,7.271,0,0,1-7.282-7.3,7.324,7.324,0,0,1,7.257-7.269,7.327,7.327,0,0,1,7.323,7.282A7.28,7.28,0,0,1-1163.755-960.014Zm.013-1.829a5.464,5.464,0,0,0,5.453-5.468,5.489,5.489,0,0,0-5.428-5.428,5.489,5.489,0,0,0-5.49,5.441A5.462,5.462,0,0,0-1163.741-961.843Z" transform="translate(1208.924 974.58)" fill="#fff"/>
      <path id="Path_185321" data-name="Path 185321" d="M-1216.021-702.025a7.237,7.237,0,0,1-7.222-7.338,7.277,7.277,0,0,1,7.279-7.226,7.3,7.3,0,0,1,7.27,7.321A7.256,7.256,0,0,1-1216.021-702.025Zm.024-1.827a5.447,5.447,0,0,0,5.472-5.442,5.48,5.48,0,0,0-5.387-5.465,5.461,5.461,0,0,0-5.5,5.419A5.428,5.428,0,0,0-1216-703.852Z" transform="translate(1253.189 755.832)" fill="#fff"/>
      <path id="Path_185322" data-name="Path 185322" d="M-1420.115-884.5a7.293,7.293,0,0,1,7.259-7.332,7.321,7.321,0,0,1,7.313,7.213,7.336,7.336,0,0,1-7.231,7.371A7.3,7.3,0,0,1-1420.115-884.5Zm1.829-.035a5.5,5.5,0,0,0,5.4,5.463,5.529,5.529,0,0,0,5.518-5.433,5.506,5.506,0,0,0-5.525-5.5A5.479,5.479,0,0,0-1418.286-884.533Z" transform="translate(1420.115 904.418)" fill="#fff"/>
      <path id="Path_185323" data-name="Path 185323" d="M-1127.959-848.9l-1.42-1.881q9.79-10.208,4.83-23.5l1.98-1.176A22.925,22.925,0,0,1-1127.959-848.9Z" transform="translate(1173.603 890.53)" fill="#fff"/>
      <path id="Path_185324" data-name="Path 185324" d="M-1351.562-766.011v2.35c-8-.418-17.786-6.928-20.15-17.9l2.371-.354a20.852,20.852,0,0,0,6.377,10.715A20.666,20.666,0,0,0-1351.562-766.011Z" transform="translate(1379.075 811.218)" fill="#fff"/>
      <path id="Path_185325" data-name="Path 185325" d="M-1343.886-954.843l-2.02-1.228c3.65-7.19,17.619-11.891,25.412-8.517l-.912,2.188a20.874,20.874,0,0,0-12.4.258A20.875,20.875,0,0,0-1343.886-954.843Z" transform="translate(1357.194 967.052)" fill="#fff"/>
      <path id="Path_185326" data-name="Path 185326" d="M-1134.185-945.279c.155-.863.155-.863.9-1.3a1.721,1.721,0,0,0,.071-3c-.443-.284-.991-.411-1.42-.711a3,3,0,0,1-.589-.855c.3-.182.594-.486.911-.516a6.168,6.168,0,0,1,1.431.192l.24-.849-1.341-.379-.115-.846h-.763c.118.715-.254,1-.832,1.3a1.567,1.567,0,0,0-.034,2.747c.464.3,1.038.429,1.486.744.265.186.589.652.515.865a1.178,1.178,0,0,1-.858.643,7.777,7.777,0,0,1-1.7-.234c-.384.8-.384.8,1.3,1.338l.11.9Z" transform="translate(1179.664 956.745)" fill="#fff"/>
      <path id="Path_185327" data-name="Path 185327" d="M-1134.185-945.279l-.691.041-.11-.9c-1.682-.541-1.682-.541-1.3-1.338a7.777,7.777,0,0,0,1.7.234,1.178,1.178,0,0,0,.858-.643c.073-.213-.251-.68-.515-.865-.449-.314-1.022-.446-1.486-.744a1.567,1.567,0,0,1,.034-2.747c.578-.3.95-.585.832-1.3h.763l.115.846,1.341.379-.24.849a6.168,6.168,0,0,0-1.431-.192c-.317.03-.608.334-.911.516a3,3,0,0,0,.589.855c.429.3.977.427,1.42.711a1.721,1.721,0,0,1-.071,3C-1134.03-946.142-1134.03-946.142-1134.185-945.279Z" transform="translate(1179.664 956.745)" fill="#fff"/>
      <path id="Path_185328" data-name="Path 185328" d="M-1186.737-688.471c-.022.316-.042.613-.065.951h-.51a3.724,3.724,0,0,0-.711-.972,4.337,4.337,0,0,0-1.21-.353l.226-.9a7.175,7.175,0,0,0,1.681.272,1.289,1.289,0,0,0,.942-.635c.084-.2-.28-.691-.556-.912a6.416,6.416,0,0,0-1.161-.539,1.656,1.656,0,0,1-1.071-1.6,1.848,1.848,0,0,1,1.165-1.55c.293-.159.443-.58.658-.882l-.151-.182.738-.043c.049.324.09.592.134.887l1.3.363-.21.857a8.549,8.549,0,0,0-1.552-.182c-.266.016-.7.286-.726.484a1.1,1.1,0,0,0,.433.825,7.266,7.266,0,0,0,1.222.591,1.717,1.717,0,0,1,1.108,1.732,1.715,1.715,0,0,1-1.269,1.616C-1186.459-688.6-1186.594-688.533-1186.737-688.471Z" transform="translate(1224.353 738.222)" fill="#fff"/>
      <path id="Path_185329" data-name="Path 185329" d="M-1383.617-862.686l-.685.03-.1-.9-1.6-.462.216-.929a12.566,12.566,0,0,0,1.506.335c.49.049,1-.041,1.153-.626.144-.561-.257-.826-.686-1.033s-.9-.361-1.3-.61a1.6,1.6,0,0,1,.065-2.846c.707-.405.707-.405.8-1.208l.733-.043.115.856,1.334.4-.245.862a5.031,5.031,0,0,0-1.359-.23c-.339.036-.648.35-.971.54a3.154,3.154,0,0,0,.59.854,10.14,10.14,0,0,0,1.229.582,1.722,1.722,0,0,1,.1,3.109C-1383.5-863.538-1383.5-863.538-1383.617-862.686Z" transform="translate(1391.193 886.739)" fill="#fff"/>
    </g>
  </g>
</svg>
