<svg xmlns="http://www.w3.org/2000/svg" width="44.27" height="47.164" viewBox="0 0 44.27 47.164">
  <g id="YMPBBm.tif" transform="translate(4465.744 -379.955)">
    <g id="Group_143679" data-name="Group 143679" transform="translate(-4465.744 379.955)">
      <path id="Path_185278" data-name="Path 185278" d="M-4465.744,385.053v-.866a3.694,3.694,0,0,0,.1-.363,4.738,4.738,0,0,1,4.578-3.864q17.472-.01,34.945,0a4.7,4.7,0,0,1,4.48,3.557,4.628,4.628,0,0,1-1.938,5.037.9.9,0,0,0-.464.889q.015,12.995.008,25.99c0,1.289-.269,1.561-1.542,1.561h-17c0,1.1-.019,2.121.014,3.145a1.144,1.144,0,0,0,.292.7c1.425,1.456,2.874,2.889,4.313,4.331q1.166,1.169-.252,1.945h-.481c-.271-.219-.561-.419-.809-.662-.958-.941-1.9-1.894-2.852-2.846-.4-.4-.8-.819-1.208-1.244-.167.157-.285.262-.4.373-1.256,1.255-2.506,2.515-3.769,3.762a8.4,8.4,0,0,1-.786.617h-.481c-.933-.565-1-1.172-.221-1.957.86-.863,1.726-1.721,2.584-2.586.677-.682,1.6-1.266,1.944-2.09a8.115,8.115,0,0,0,.093-2.854c0-.2,0-.4,0-.638h-17.054c-1.212,0-1.5-.289-1.5-1.5q0-13.083.007-26.167a.791.791,0,0,0-.392-.729,7.963,7.963,0,0,1-1.255-1.171A5.092,5.092,0,0,1-4465.744,385.053Zm4.618,29.9h35.03V389.407h-35.03Zm17.555-32.995h-16.989c-.208,0-.418,0-.625.009a2.7,2.7,0,0,0-2.411,3.43,2.777,2.777,0,0,0,2.908,1.967q17.085,0,34.171,0a4.416,4.416,0,0,0,.907-.086,2.691,2.691,0,0,0,2-3.389,2.716,2.716,0,0,0-2.783-1.927Q-4434.98,381.959-4443.571,381.962Z" transform="translate(4465.744 -379.955)" fill="#12263f"/>
      <path id="Path_185279" data-name="Path 185279" d="M-4391,537.967c0,1.058-.017,2.117.013,3.174a1.138,1.138,0,0,0,.286.7c1.444,1.481,2.911,2.939,4.37,4.4.775.779.719,1.365-.187,1.992a8.047,8.047,0,0,1-12.476-5.3,8.046,8.046,0,0,1,6.63-9.284,1.035,1.035,0,0,1,1.363,1.143C-4391,535.851-4391,536.909-4391,537.967Zm2.589,9.055c-.178-.188-.293-.315-.414-.436-1.133-1.135-2.258-2.277-3.4-3.4a2.44,2.44,0,0,1-.787-1.883c.025-1.619.008-3.239.007-4.858,0-.167-.014-.334-.023-.561a5.91,5.91,0,0,0-4,4.875,5.71,5.71,0,0,0,2.789,5.946A5.949,5.949,0,0,0-4388.411,547.022Z" transform="translate(4405.532 -518.797)" fill="#12263f"/>
      <path id="Path_185280" data-name="Path 185280" d="M-4301.987,525.4c0-.994,0-1.989,0-2.983,0-1.012.462-1.4,1.45-1.228a8.038,8.038,0,0,1,5.182,12.581,1.05,1.05,0,0,1-1.807.169c-1.458-1.444-2.9-2.9-4.362-4.347a1.515,1.515,0,0,1-.468-1.162C-4301.978,527.425-4301.987,526.415-4301.987,525.4Zm2.092-1.961a.739.739,0,0,0-.048.164c0,1.488-.012,2.977.006,4.465a.81.81,0,0,0,.251.48c.793.813,1.608,1.605,2.4,2.42.253.26.457.567.719.9A6.012,6.012,0,0,0-4299.9,523.444Z" transform="translate(4317.787 -507.535)" fill="#12263f"/>
      <path id="Path_185281" data-name="Path 185281" d="M-4091.917,533.215q0,3.365,0,6.729a3.731,3.731,0,0,1-.055.716.958.958,0,0,1-.983.749.948.948,0,0,1-.921-.763,3.731,3.731,0,0,1-.051-.669q0-6.8,0-13.6c0-.931.337-1.414.99-1.429s1.024.487,1.024,1.443Q-4091.917,529.8-4091.917,533.215Z" transform="translate(4129.795 -510.96)" fill="#12263f"/>
      <path id="Path_185282" data-name="Path 185282" d="M-4137.257,567.32q0,2.623,0,5.246a2.653,2.653,0,0,1-.024.479.988.988,0,0,1-.946.808.948.948,0,0,1-.961-.715,2.37,2.37,0,0,1-.07-.616q-.006-5.174,0-10.348c0-.016,0-.032,0-.048.006-.787.39-1.274,1.006-1.275s1,.477,1,1.271Q-4137.256,564.721-4137.257,567.32Z" transform="translate(4170.754 -543.403)" fill="#12263f"/>
      <path id="Path_185283" data-name="Path 185283" d="M-4182.334,593.57c0,1.33,0,2.659,0,3.989a1.086,1.086,0,0,1-.688,1.148.994.994,0,0,1-1.312-1.026c-.013-1.506,0-3.012,0-4.518,0-1.25-.009-2.5.008-3.749a.949.949,0,0,1,.9-1,.949.949,0,0,1,1.054.831,2.717,2.717,0,0,1,.041.524C-4182.333,591.039-4182.334,592.3-4182.334,593.57Z" transform="translate(4211.486 -568.309)" fill="#12263f"/>
    </g>
  </g>
</svg>
