<svg xmlns="http://www.w3.org/2000/svg" width="58.139" height="53.589" viewBox="0 0 58.139 53.589">
  <g id="_4G3rcp.tif" data-name="4G3rcp.tif" transform="translate(2438.108 770.272)">
    <g id="Group_143683" data-name="Group 143683" transform="translate(-2438.108 -770.272)">
      <path id="Path_185300" data-name="Path 185300" d="M-2438.108-623.471a4.567,4.567,0,0,1,1.289-2.082,3.825,3.825,0,0,1,2.467-.851c2.914-.011,5.828-.018,8.742,0a3.6,3.6,0,0,1,3.77,3.737c.03,1.115.007,2.232.007,3.348,0,4.786-.009,9.571,0,14.357a3.56,3.56,0,0,1-2.041,3.556,4.654,4.654,0,0,1-1.862.382c-2.8.039-5.6-.016-8.4.028a3.714,3.714,0,0,1-3.884-2.812c-.011-.051-.061-.093-.092-.139Zm14.514,16.151v-14.57h-12.781v14.57Zm-12.76,1.8c-.21,1.77.458,2.76,1.938,2.777,2.97.034,5.941.025,8.912,0a1.822,1.822,0,0,0,1.909-1.524,8.426,8.426,0,0,0,.011-1.254Zm12.532-18.182a2.012,2.012,0,0,0-1.951-.966q-4.2,0-8.4,0a3.569,3.569,0,0,0-.734.06,1.523,1.523,0,0,0-1.173.9Z" transform="translate(2438.108 642.778)" fill="#12263f"/>
      <path id="Path_185301" data-name="Path 185301" d="M-2245.782-411.85a1.473,1.473,0,0,1-.557-1.277c.017-3.1,0-6.2.01-9.3a3.625,3.625,0,0,1,2.747-3.754,3.315,3.315,0,0,1,.839-.1c2.44-.008,4.882-.056,7.32.011a3.55,3.55,0,0,1,3.584,3.791c.016,3.158,0,6.316.01,9.474a1.381,1.381,0,0,1-.554,1.164Zm12.15-1.735a1.773,1.773,0,0,0,.043-.258c0-2.951.025-5.9-.01-8.852a2.141,2.141,0,0,0-2.925-1.866c-.05.018-.126.044-.136.08a7.189,7.189,0,0,0-.542,2.218c.143,1.859.478,3.7.757,5.553a1.214,1.214,0,0,1-.359,1.131c-.511.505-1.01,1.023-1.528,1.522a.9.9,0,0,1-1.475.022,20.246,20.246,0,0,1-1.592-1.616,1.438,1.438,0,0,1-.31-.967c.141-1.332.335-2.66.552-3.982a5.413,5.413,0,0,0-.234-3.583c-.073-.137-.156-.333-.276-.37a2.133,2.133,0,0,0-2.911,2.109c-.01,2.781,0,5.561,0,8.342,0,.164.023.328.037.518Zm-5.3-8.269-.23-.007a1.861,1.861,0,0,0-.141.376c-.22,1.512-.436,3.025-.637,4.54a.685.685,0,0,0,.122.447c.2.271.432.514.637.751.735-.5,1.121-.98.9-1.841a26.953,26.953,0,0,1-.434-2.737C-2238.789-420.835-2238.858-421.345-2238.931-421.854Zm-.67-2.694-.146.139c.217.278.412.768.655.793.6.062.38-.581.623-.932Z" transform="translate(2268.152 465.439)" fill="#12263f"/>
      <path id="Path_185302" data-name="Path 185302" d="M-2249.15-757.681a3.4,3.4,0,0,1-3.043.492,4.41,4.41,0,0,1-2.563-5.4,3.7,3.7,0,0,1,4-3.007,8.763,8.763,0,0,1,1.56.485c-.007.01.027-.016.03-.045.071-.745.356-1.08.9-1.057s.818.411.819,1.136q0,3.376,0,6.751c0,.2,0,.409,0,.619,2.257-.338,3.529-1.985,3.448-4.408a6.531,6.531,0,0,0-6.04-6.37,7.416,7.416,0,0,0-7.646,4.022,7.2,7.2,0,0,0,5.314,10.224,9.329,9.329,0,0,0,.955.1c.685.039,1.1.382,1.08.909-.02.543-.435.839-1.137.81a9.008,9.008,0,0,1-8.587-7.745,8.994,8.994,0,0,1,6.722-9.837c3.592-.886,7.943.374,9.936,3.829a7.511,7.511,0,0,1,.507,7.164,5.473,5.473,0,0,1-4.316,3.035,5.756,5.756,0,0,1-.842.107c-.76.032-1.083-.277-1.1-1.025C-2249.154-757.113-2249.15-757.34-2249.15-757.681Zm-4.226-3.716a10.3,10.3,0,0,0,.777,1.881,1.69,1.69,0,0,0,2.759.111,3.1,3.1,0,0,0-.049-3.9,1.628,1.628,0,0,0-2.6.043A10.022,10.022,0,0,0-2253.375-761.4Z" transform="translate(2280.37 770.272)" fill="#12263f"/>
      <path id="Path_185303" data-name="Path 185303" d="M-2069.729-567.734l-5.586,4.344c-.329.255-.656.513-.986.766a.964.964,0,0,1-1.468.007q-2.984-2.309-5.958-4.631c-.175-.136-.356-.265-.592-.441v8.227c.406,0,.813-.009,1.22,0,.7.018,1.115.343,1.115.866s-.424.865-1.113.875c-.53.008-1.06,0-1.59,0-1.171,0-1.406-.228-1.406-1.379q0-4.682,0-9.365c0-.246,0-.492,0-.738.015-.892.305-1.187,1.2-1.189q3.435-.007,6.87,0,4.372,0,8.743,0c1.008,0,1.28.273,1.28,1.271q0,5.108,0,10.216c0,.888-.294,1.183-1.192,1.184q-4.712,0-9.425,0a1.164,1.164,0,0,1-.705-.125,1.222,1.222,0,0,1-.451-.808c.019-.26.319-.553.569-.724a1.4,1.4,0,0,1,.72-.079q4.031-.007,8.062,0h.692Zm-12.927-.867,5.616,4.363,5.611-4.363Z" transform="translate(2126.136 593.128)" fill="#12263f"/>
      <path id="Path_185304" data-name="Path 185304" d="M-2259.407-538.942c-.582,0-1.11.012-1.637,0-.935-.025-1.306-.719-.8-1.5.367-.572.736-1.145,1.136-1.693a.578.578,0,0,0,.011-.8c-.414-.562-.784-1.157-1.172-1.737a.872.872,0,0,1-.063-1.054.948.948,0,0,1,.993-.379q4.306.48,8.616.934a6.348,6.348,0,0,1,5.617,6.119,6.453,6.453,0,0,1-5.264,6.39,6.372,6.372,0,0,1-7.338-5.54C-2259.331-538.433-2259.369-538.655-2259.407-538.942Zm10.733,1.332c.072-.209.124-.322.151-.441a4.644,4.644,0,0,0-4.046-5.419c-1.28-.1-2.554-.27-3.831-.407-.979-.1-1.959-.2-3.05-.318.217.339.354.56.5.777.522.788.522.953.009,1.727-.2.3-.392.606-.644,1h.757c2.308,0,4.615.029,6.922-.015a1.816,1.816,0,0,1,1.807.972C-2249.69-539.025-2249.187-538.366-2248.674-537.61Zm-.943,1.7c-.594-.878-1.206-1.758-1.786-2.658a.761.761,0,0,0-.743-.377c-1.455.016-2.909.007-4.364.007h-1.053a4.472,4.472,0,0,0,2.774,4.274A4.537,4.537,0,0,0-2249.617-535.914Z" transform="translate(2282.108 571.622)" fill="#12263f"/>
      <path id="Path_185305" data-name="Path 185305" d="M-2113.225-621.587a.878.878,0,0,1-1.217.891,11.933,11.933,0,0,1-1.532-.949.787.787,0,0,1-.217-1.143.789.789,0,0,1,1.088-.291,12.522,12.522,0,0,1,1.527.957A1.6,1.6,0,0,1-2113.225-621.587Z" transform="translate(2152.949 639.92)" fill="#12263f"/>
      <path id="Path_185306" data-name="Path 185306" d="M-2084.753-384.071c-.176-.133-.51-.261-.608-.49a1.069,1.069,0,0,1,.039-.884,4.035,4.035,0,0,1,1.11-1.11,1.042,1.042,0,0,1,.962.027c.214.161.393.734.273.9a11.277,11.277,0,0,1-1.393,1.446C-2084.428-384.124-2084.546-384.127-2084.753-384.071Z" transform="translate(2125.553 430.295)" fill="#12263f"/>
      <path id="Path_185307" data-name="Path 185307" d="M-2060.861-413.614a17.163,17.163,0,0,1-1.342,1.8c-.133.14-.7.064-.9-.108a.987.987,0,0,1-.243-.885,4.548,4.548,0,0,1,.9-1.421,1.052,1.052,0,0,1,.913-.146C-2061.295-414.3-2061.14-413.945-2060.861-413.614Z" transform="translate(2106.002 454.896)" fill="#12263f"/>
      <path id="Path_185308" data-name="Path 185308" d="M-2293.332-377.673c-.709,0-1.755-.878-1.74-1.38a1.086,1.086,0,0,1,.385-.79,1.008,1.008,0,0,1,.87-.007,2.769,2.769,0,0,1,.946.862,1.087,1.087,0,0,1,.05.877C-2292.91-377.885-2293.232-377.751-2293.332-377.673Z" transform="translate(2311.342 424.344)" fill="#12263f"/>
      <path id="Path_185309" data-name="Path 185309" d="M-2147.9-637.315a8.907,8.907,0,0,1,1.194.454.753.753,0,0,1,.35.974.779.779,0,0,1-.871.57,3.278,3.278,0,0,1-1.012-.327.7.7,0,0,1-.37-.954C-2148.467-636.89-2148.135-637.09-2147.9-637.315Z" transform="translate(2181.607 652.439)" fill="#12263f"/>
      <path id="Path_185310" data-name="Path 185310" d="M-2256.753-627.284a7.978,7.978,0,0,1-.949.869,1.023,1.023,0,0,1-1.258.112.791.791,0,0,1-.289-1c.174-.423,1.149-.985,1.549-.8A4.787,4.787,0,0,1-2256.753-627.284Z" transform="translate(2279.66 644.307)" fill="#12263f"/>
      <path id="Path_185311" data-name="Path 185311" d="M-2283.1-611.392a1.71,1.71,0,0,1-1.4,1.273.83.83,0,0,1-.841-.807c-.021-.495.8-1.3,1.35-1.314A.907.907,0,0,1-2283.1-611.392Z" transform="translate(2302.717 630.217)" fill="#12263f"/>
      <path id="Path_185312" data-name="Path 185312" d="M-2106.513-364.135a1.493,1.493,0,0,1-1.821,1.174.808.808,0,0,1-.409-1.006,1.791,1.791,0,0,1,1.475-.96A.854.854,0,0,1-2106.513-364.135Z" transform="translate(2146.242 411.041)" fill="#12263f"/>
      <path id="Path_185313" data-name="Path 185313" d="M-2080.864-596.774a1.662,1.662,0,0,1,1.324,1.332.833.833,0,0,1-.8.846,1.683,1.683,0,0,1-1.355-1.3A.837.837,0,0,1-2080.864-596.774Z" transform="translate(2122.236 616.51)" fill="#12263f"/>
      <path id="Path_185314" data-name="Path 185314" d="M-2045.963-440.55c-.015.786-.545,1.471-1.125,1.452a.818.818,0,0,1-.8-.893c.029-.771.535-1.448,1.075-1.441A.9.9,0,0,1-2045.963-440.55Z" transform="translate(2092.275 478.838)" fill="#12263f"/>
      <path id="Path_185315" data-name="Path 185315" d="M-2273.057-362.98a.846.846,0,0,1-.885.834c-.6-.03-1.381-.729-1.375-1.229a.835.835,0,0,1,.889-.825C-2273.807-364.173-2273.047-363.5-2273.057-362.98Z" transform="translate(2293.834 410.391)" fill="#12263f"/>
      <path id="Path_185316" data-name="Path 185316" d="M-2309.865-397.828a1.675,1.675,0,0,1,1.265,1.414.852.852,0,0,1-.836.828,1.685,1.685,0,0,1-1.27-1.413A.861.861,0,0,1-2309.865-397.828Z" transform="translate(2325.198 440.193)" fill="#12263f"/>
      <path id="Path_185317" data-name="Path 185317" d="M-2372.645-437.265a.88.88,0,0,0-.872-.865.839.839,0,0,0-.942.831.872.872,0,0,0,.852.882A.931.931,0,0,0-2372.645-437.265Z" transform="translate(2381.698 475.912)" fill="#12263f"/>
      <path id="Path_185318" data-name="Path 185318" d="M-2372.645-437.265a.931.931,0,0,1-.962.848.872.872,0,0,1-.852-.882.839.839,0,0,1,.942-.831A.88.88,0,0,1-2372.645-437.265Z" transform="translate(2381.698 475.912)" fill="#12263f"/>
    </g>
  </g>
</svg>
