<svg xmlns="http://www.w3.org/2000/svg" width="94.305" height="159.845" viewBox="0 0 94.305 159.845">
  <g id="Group_143842" data-name="Group 143842" transform="translate(-800 -1824)">
    <g id="Group_143769" data-name="Group 143769" transform="translate(1071.07 2657.962)">
      <path id="Path_185530" data-name="Path 185530" d="M-178.364-833.962a3.255,3.255,0,0,1,1.58,3.136c-.071,4.211-.018,8.424-.029,12.636-.006,2.135-.793,2.946-2.893,2.946q-44.22.008-88.44,0c-2.1,0-2.888-.811-2.893-2.946-.011-4.212.042-8.425-.029-12.636a3.255,3.255,0,0,1,1.58-3.136ZM-266.3-820.02h84.7V-829.2h-84.7Z" transform="translate(-0.001 0)" fill="#12263f"/>
      <path id="Path_185531" data-name="Path 185531" d="M-191.116-537.283c3.911,0,7.6-.006,11.286,0,2.318.005,3.066.756,3.067,3.088q.008,15.917,0,31.834c0,.1,0,.208,0,.312-.032,1.8-.925,2.857-2.391,2.822-1.4-.033-2.268-1.056-2.273-2.779-.014-4.837-.005-9.675-.005-14.512v-6.631H-221.47v1.634q0,9.285,0,18.57a9.127,9.127,0,0,1-.046,1.4,2.345,2.345,0,0,1-2.3,2.309c-1.3.063-2.216-.821-2.428-2.336a10.157,10.157,0,0,1-.042-1.4q0-9.207,0-18.414v-1.773h-40.039v1.675c0,6.5.012,13-.007,19.506-.006,2.128-1.758,3.474-3.313,2.457a3.179,3.179,0,0,1-1.292-2.243c-.083-10.975-.065-21.95-.048-32.926a2.314,2.314,0,0,1,2.619-2.585c3.84-.027,7.681-.008,11.726-.008v-1.752c0-6.138.161-12.281-.051-18.412-.17-4.91,3.579-8.363,7.9-7.934.449.044.906.006,1.511.006,0-1.852-.014-3.555,0-5.258a8.5,8.5,0,0,1,8.744-8.779q14.666-.043,29.332,0a8.5,8.5,0,0,1,8.715,8.65c.022,1.713,0,3.427,0,5.387.761,0,1.462-.007,2.163,0a6.957,6.957,0,0,1,7.192,7.172c.027,6.346.008,12.692.008,19.037ZM-242.5-560.628V-537.4h37.279v-23.227Zm-23.75,32.6h84.7v-4.5h-84.7Zm23.656-37.445h37.432c0-1.907.084-3.721-.022-5.524a3.96,3.96,0,0,0-3.887-3.731c-1.347-.069-2.7-.02-4.049-.02q-12.461,0-24.923,0c-2.667,0-4.413,1.474-4.534,3.89C-242.668-569.1-242.6-567.34-242.6-565.475Zm-4.732,4.864c-3.425-.277-4.611.4-4.624,2.739-.038,6.693-.007,13.385.005,20.078a1.242,1.242,0,0,0,.14.4h4.479Zm51.544,23.267c0-6.577,0-13,0-19.43,0-3.465-1.162-4.412-4.6-3.733v23.163Z" transform="translate(-0.049 -174.943)" fill="#12263f"/>
      <path id="Path_185532" data-name="Path 185532" d="M-248.617-730.956q-7.407,0-14.813,0c-3.866-.006-6.505-1.924-7.418-5.37-.817-3.087.654-6.224,3.871-8.063,4.685-2.68,9.362-5.375,14.117-7.925,1.446-.775,2.055-1.674,1.837-3.27a4.4,4.4,0,0,1,.19-1.837,2.1,2.1,0,0,1,2.38-1.58,2.145,2.145,0,0,1,2.066,1.975,2.2,2.2,0,0,1,.061.773c-.53,2.313.738,3.379,2.619,4.374,4.539,2.4,8.99,4.973,13.441,7.538,3.674,2.117,5,5.947,3.293,9.4a6.714,6.714,0,0,1-6.364,3.981C-238.43-730.935-243.524-730.957-248.617-730.956Zm-.048-4.67q7.406,0,14.812,0c1.231,0,2.321-.363,2.711-1.648a2.384,2.384,0,0,0-1.41-2.949c-5.07-2.84-10.117-5.724-15.216-8.511a2.386,2.386,0,0,0-1.935.068c-2.662,1.4-5.261,2.922-7.88,4.4-2.484,1.405-5.025,2.723-7.411,4.28a3.352,3.352,0,0,0-1.2,2.4c-.04,1.159.974,1.753,2.1,1.924a9.415,9.415,0,0,0,1.4.038Q-255.683-735.625-248.666-735.627Z" transform="translate(0 -51.511)" fill="#12263f"/>
      <path id="Path_185533" data-name="Path 185533" d="M-90.544-730.973q-7.328,0-14.657,0c-3.779,0-6.577-1.97-7.412-5.19-.851-3.284.524-6.332,3.812-8.219,4.726-2.712,9.455-5.42,14.245-8.016,1.3-.706,2.049-1.456,1.769-2.988a4.855,4.855,0,0,1,.012-1.245,2.316,2.316,0,0,1,2.32-2.411,2.155,2.155,0,0,1,2.31,2.389c-.51,2.976,1.257,4.031,3.432,5.18,4.266,2.254,8.446,4.671,12.623,7.089,4.813,2.787,5.5,8.762,1.268,11.867a8.419,8.419,0,0,1-4.444,1.475C-80.353-730.862-85.45-730.973-90.544-730.973Zm.006-4.671c4.989,0,9.979.009,14.968-.006a2.437,2.437,0,0,0,2.7-1.871c.331-1.36-.453-2.14-1.523-2.743-5.064-2.851-10.121-5.716-15.207-8.528a1.868,1.868,0,0,0-1.531-.094c-5.269,2.91-10.506,5.877-15.742,8.848a2.162,2.162,0,0,0-1.146,2.5c.355,1.595,1.588,1.891,2.98,1.891Q-97.788-735.642-90.538-735.644Z" transform="translate(-108.742 -51.494)" fill="#12263f"/>
      <path id="Path_185534" data-name="Path 185534" d="M-151.151-504.585c3.743,0,7.486-.012,11.23.005,1.8.008,2.855.929,2.817,2.387-.037,1.411-1.051,2.28-2.78,2.284q-11.23.021-22.459,0c-1.8,0-2.85-.932-2.816-2.4.033-1.4,1.048-2.259,2.779-2.268C-158.638-504.6-154.895-504.585-151.151-504.585Z" transform="translate(-72.794 -226.385)" fill="#12263f"/>
    </g>
  </g>
</svg>
