<svg xmlns="http://www.w3.org/2000/svg" width="54.742" height="61.514" viewBox="0 0 54.742 61.514">
  <g id="_1uObuQ" data-name="1uObuQ" transform="translate(3303.595 979.206)">
    <g id="Group_143682" data-name="Group 143682" transform="translate(-3303.595 -979.206)">
      <path id="Path_185299" data-name="Path 185299" d="M-3293.891-957.33a5.846,5.846,0,0,1-2.831,1.693,5.561,5.561,0,0,1-6.807-4.578,5.509,5.509,0,0,1,4.734-6.329,5.535,5.535,0,0,1,6.213,6.6c-.132.659-.139.656.453,1l3.752,2.159c.082.047.167.088.3.156.009-.158.021-.282.021-.406,0-.65,0-1.3,0-1.95a1.167,1.167,0,0,1,1.293-1.3q4.459,0,8.919,0h.511c0-.4,0-.764,0-1.131-.01-2.128-.028-4.255-.024-6.383a.415.415,0,0,0-.367-.488,5.5,5.5,0,0,1-4.023-5.889,5.54,5.54,0,0,1,5.489-5.026,5.584,5.584,0,0,1,5.532,4.695,5.526,5.526,0,0,1-3.874,6.184c-.4.114-.484.278-.48.66.018,2.333.009,4.667.009,7v.378h9.323c.941,0,1.366.425,1.367,1.364,0,.745,0,1.49,0,2.282.119-.052.206-.081.284-.126,1.385-.8,2.767-1.606,4.158-2.394a.315.315,0,0,0,.17-.43,5.545,5.545,0,0,1,4.572-6.959,5.559,5.559,0,0,1,5.512,2.6,5.56,5.56,0,0,1-2.39,7.967,5.57,5.57,0,0,1-6.213-1.09,2.723,2.723,0,0,1-.214-.274c-.771.442-1.5.857-2.225,1.275-1.125.649-2.246,1.3-3.375,1.947a.473.473,0,0,0-.286.474c.011,2.31.008,4.62.008,6.93,0,1.167-.006,2.334.007,3.5a.505.505,0,0,0,.173.378c1.847,1.081,3.7,2.147,5.557,3.216a.919.919,0,0,0,.115.045,5.756,5.756,0,0,1,2.8-1.669,5.543,5.543,0,0,1,6.81,4.563,5.569,5.569,0,0,1-6.219,6.358,5.564,5.564,0,0,1-4.65-6.912.388.388,0,0,0-.226-.531c-1.371-.775-2.731-1.57-4.1-2.358-.07-.041-.146-.071-.276-.133,0,.266,0,.488,0,.711.046,3.018.089,2.979-2.927,2.95-2.443-.023-4.886,0-7.33,0h-.434v.42c0,2.358,0,4.715-.006,7.073,0,.3.068.429.378.517a5.517,5.517,0,0,1,4.04,5.465,5.553,5.553,0,0,1-4.1,5.243,5.558,5.558,0,0,1-6.958-4.614,5.524,5.524,0,0,1,4-6.1.418.418,0,0,0,.362-.493c-.015-1.731-.007-3.462-.007-5.193v-2.317h-9.294c-.985,0-1.4-.412-1.4-1.408,0-.732,0-1.464,0-2.261-.289.162-.527.292-.762.427-1.219.7-2.433,1.415-3.657,2.108a.333.333,0,0,0-.187.455,5.54,5.54,0,0,1-6.067,6.945,5.323,5.323,0,0,1-4.271-3.051,5.541,5.541,0,0,1,4.743-8.018,5.379,5.379,0,0,1,4.141,1.627c.164.16.269.2.481.079q2.631-1.539,5.278-3.05a.529.529,0,0,0,.307-.536c0-1.515.021-3.029.021-4.544q0-2.94-.036-5.88a.459.459,0,0,0-.176-.339C-3290.11-955.148-3291.985-956.228-3293.891-957.33Zm8.13,18.4h19.082v-19.03h-19.082Zm28.089-22.115a3.263,3.263,0,0,0,3.27,3.277,3.25,3.25,0,0,0,3.281-3.316,3.24,3.24,0,0,0-3.188-3.25A3.246,3.246,0,0,0-3257.673-961.044Zm-37.094.027a3.258,3.258,0,0,0-3.343-3.314,3.227,3.227,0,0,0-3.2,3.426,3.22,3.22,0,0,0,3.2,3.135A3.245,3.245,0,0,0-3294.767-961.017Zm37.094,25.131a3.251,3.251,0,0,0,3.268,3.311,3.248,3.248,0,0,0,3.274-3.234,3.285,3.285,0,0,0-3.237-3.324A3.269,3.269,0,0,0-3257.673-935.887Zm-15.274-37.738a3.266,3.266,0,0,0-3.234-3.283,3.255,3.255,0,0,0-3.308,3.279,3.278,3.278,0,0,0,3.249,3.274A3.287,3.287,0,0,0-3272.947-973.625Zm-21.819,37.794a3.27,3.27,0,0,0-3.248-3.3,3.282,3.282,0,0,0-3.291,3.267,3.253,3.253,0,0,0,3.248,3.293A3.261,3.261,0,0,0-3294.766-935.83Zm21.817,12.589a3.278,3.278,0,0,0-3.26-3.3,3.279,3.279,0,0,0-3.279,3.243,3.255,3.255,0,0,0,3.2,3.306A3.256,3.256,0,0,0-3272.949-923.241Z" transform="translate(3303.595 979.206)" fill="#fff"/>
    </g>
  </g>
</svg>
