<svg xmlns="http://www.w3.org/2000/svg" width="58.138" height="46.664" viewBox="0 0 58.138 46.664">
  <g id="Group_143686" data-name="Group 143686" transform="translate(-28.067 12.205)">
    <g id="cvjZLS.tif" transform="translate(3835.6 -385.891)">
      <g id="Group_143677" data-name="Group 143677" transform="translate(-3807.533 373.686)">
        <path id="Path_185264" data-name="Path 185264" d="M-3749.394,387.322V388c-.265.318-.507.659-.8.95q-5.851,5.86-11.717,11.706a4.894,4.894,0,0,1-.527.4,4.072,4.072,0,0,1,1.4,4.53,3.966,3.966,0,0,1-3.787,2.751,3.969,3.969,0,0,1-1.186,2.826,3.964,3.964,0,0,1-2.78,1.158c-.028.124-.048.2-.061.27-.4,2.3-1.363,3.289-3.633,3.7-.3.054-.4.178-.417.478a3.326,3.326,0,0,1-1.308,2.537,13.634,13.634,0,0,1-1.974,1.042h-1.249a5.013,5.013,0,0,1-2.568-1.513,11.941,11.941,0,0,1-1.253.937,11.318,11.318,0,0,1-1.4.576h-1.249c-.21-.077-.418-.161-.631-.229a3.9,3.9,0,0,1-2.64-3.241c-.025-.446-.189-.573-.6-.615a3.828,3.828,0,0,1-3.277-2.734c-.113-.393-.171-.8-.25-1.179a4.1,4.1,0,0,1-4.005-4.029,3.912,3.912,0,0,1-3.653-2.48,4.055,4.055,0,0,1,1.29-4.775,6.349,6.349,0,0,1-.521-.417q-4.362-4.346-8.718-8.7c-.823-.822-.831-1.359-.021-2.169q7-7,14.008-14c.822-.822,1.347-.82,2.168,0,1.621,1.617,3.252,3.223,4.846,4.866a2.146,2.146,0,0,0,1.366.675,7.694,7.694,0,0,1,3.415,1.277c.373.251.715.546,1.059.812a.472.472,0,0,0,.132-.048,8.941,8.941,0,0,1,6.228-2.3,5.385,5.385,0,0,0,3.842-1.666c1.756-1.694,3.551-3.348,5.326-5.023.968-.913,1.408-.914,2.337.015q5.921,5.918,11.838,11.84C-3750.022,386.57-3749.718,386.955-3749.394,387.322Zm-33.871,16.982a.7.7,0,0,0,.125.05c2.4.392,3.318,1.286,3.866,3.7a.623.623,0,0,0,.44.357,3.951,3.951,0,0,1,3.552,3.608.741.741,0,0,0,.154.4,13.555,13.555,0,0,0,1.3,1.264,1.639,1.639,0,0,0,2.549-.681,1.737,1.737,0,0,0-.5-2.006q-2.4-2.377-4.776-4.775a2.9,2.9,0,0,1-.466-.566,1.1,1.1,0,0,1,.212-1.346,1.1,1.1,0,0,1,1.359-.134,3.266,3.266,0,0,1,.515.44c1.581,1.576,3.144,3.171,4.748,4.722a2.684,2.684,0,0,0,1.206.66,1.558,1.558,0,0,0,1.675-.9,1.611,1.611,0,0,0-.341-1.974c-1.608-1.629-3.234-3.24-4.85-4.861a3.831,3.831,0,0,1-.444-.512,1.132,1.132,0,0,1,.1-1.406,1.119,1.119,0,0,1,1.446-.151,3.509,3.509,0,0,1,.512.445c1.608,1.6,3.208,3.213,4.82,4.811a1.675,1.675,0,0,0,2.021.385,1.555,1.555,0,0,0,.892-1.731,2.675,2.675,0,0,0-.688-1.19q-5.493-5.542-11.027-11.045c-.115-.116-.24-.222-.391-.362-.578.587-1.128,1.159-1.694,1.716-.62.609-1.223,1.241-1.888,1.8a4.517,4.517,0,0,1-6.035-.327,4.482,4.482,0,0,1-.289-6.035c.952-1.1,2.022-2.094,3.038-3.137.139-.142.27-.293.416-.453a6.144,6.144,0,0,0-3.162-1.515,1,1,0,0,0-1.023.353q-6.226,6.254-12.477,12.484a3.418,3.418,0,0,1-.422.318l2.743,2.757c.593-.6,1.192-1.229,1.817-1.832a3.955,3.955,0,0,1,5.61-.251,3.967,3.967,0,0,1,1.334,2.941A4.058,4.058,0,0,1-3783.265,404.3Zm14.075-22.5a7.172,7.172,0,0,1-4.7,1.541,6.6,6.6,0,0,0-4.83,2.015c-.925.947-1.872,1.872-2.807,2.808-.6.6-1.224,1.185-1.792,1.817a2.1,2.1,0,0,0-.4,2.37,2.149,2.149,0,0,0,1.98,1.372,2.373,2.373,0,0,0,1.859-.809q2.555-2.577,5.131-5.135c.734-.733,1.378-.839,1.917-.318s.45,1.2-.317,1.953a3.41,3.41,0,0,1-.453.333l9.653,9.651,6.018-6.053Zm-35.421,9.043,4.206,4.206,12.731-12.716-4.173-4.252Zm52.338-3.116-11.224-11.209-3.981,3.757,11.184,11.467Zm-32.784,28.542a1.984,1.984,0,0,0,1.132,1.637,1.625,1.625,0,0,0,1.878-.373q1.98-1.953,3.934-3.931a1.661,1.661,0,0,0,.076-2.432,1.709,1.709,0,0,0-2.48.063c-1.294,1.274-2.588,2.548-3.844,3.859A5.854,5.854,0,0,0-3785.058,416.275Zm-12.029-12.022a1.967,1.967,0,0,0,1.078,1.6,1.635,1.635,0,0,0,1.928-.356q2-1.97,3.971-3.973a1.647,1.647,0,0,0,.026-2.39,1.7,1.7,0,0,0-2.44.037c-1.323,1.3-2.641,2.6-3.923,3.939A5.138,5.138,0,0,0-3797.087,404.254Zm11.513.336a1.79,1.79,0,0,0-1.009-1.8,1.585,1.585,0,0,0-1.875.344q-1.98,1.944-3.927,3.921a1.672,1.672,0,0,0-.1,2.469,1.684,1.684,0,0,0,2.473-.067c1.293-1.269,2.585-2.541,3.837-3.85A4.3,4.3,0,0,0-3785.574,404.589Zm-1.629,9.556a5.132,5.132,0,0,0,1.144-.638c1.337-1.28,2.642-2.6,3.938-3.919a1.683,1.683,0,0,0,.061-2.435,1.7,1.7,0,0,0-2.439.04c-.47.438-.913.9-1.367,1.359-.868.87-1.743,1.731-2.6,2.614a1.612,1.612,0,0,0-.331,1.885A1.886,1.886,0,0,0-3787.2,414.145Zm8.8,3a1.835,1.835,0,0,0,1.93.856,1.6,1.6,0,0,0,1.294-1.34,1.749,1.749,0,0,0-.766-1.785Z" transform="translate(3807.533 -373.686)" fill="#12263f"/>
        <path id="Path_185265" data-name="Path 185265" d="M-3751.493,488.388c-1.05.015-1.607-.87-1.215-1.626a1.88,1.88,0,0,1,.339-.448q1.535-1.549,3.083-3.085c.613-.606,1.238-.66,1.751-.176a1.181,1.181,0,0,1-.139,1.792c-1.021,1.035-2.045,2.068-3.09,3.078A3.551,3.551,0,0,1-3751.493,488.388Z" transform="translate(3759.055 -470.325)" fill="#12263f"/>
        <path id="Path_185266" data-name="Path 185266" d="M-3692.015,456.361a1.16,1.16,0,0,1-1.137,1.158,1.2,1.2,0,0,1-1.132-1.123,1.18,1.18,0,0,1,1.153-1.15A1.144,1.144,0,0,1-3692.015,456.361Z" transform="translate(3707.165 -445.969)" fill="#12263f"/>
        <path id="Path_185267" data-name="Path 185267" d="M-3386.168,468.451a5.368,5.368,0,0,1-.966-.558c-.719-.671-1.411-1.371-2.092-2.08a1.163,1.163,0,0,1-.073-1.714,1.128,1.128,0,0,1,1.671.095c.736.708,1.455,1.434,2.165,2.167a1.021,1.021,0,0,1,.209,1.3A4.237,4.237,0,0,1-3386.168,468.451Z" transform="translate(3437.172 -453.526)" fill="#12263f"/>
        <path id="Path_185268" data-name="Path 185268" d="M-3415.755,434.664a1.112,1.112,0,0,1,1.105,1.111,1.14,1.14,0,0,1-1.136,1.149,1.2,1.2,0,0,1-1.127-1.125A1.162,1.162,0,0,1-3415.755,434.664Z" transform="translate(3461.342 -427.729)" fill="#12263f"/>
      </g>
    </g>
  </g>
</svg>
