<svg xmlns="http://www.w3.org/2000/svg" width="47.012" height="54.526" viewBox="0 0 47.012 54.526">
  <g id="_7kwUpr.tif" data-name="7kwUpr.tif" transform="translate(1037.54 1082.646)">
    <g id="Group_143685" data-name="Group 143685" transform="translate(-1037.54 -1082.646)">
      <path id="Path_185330" data-name="Path 185330" d="M-1019.845-1082.646h11.5a1.147,1.147,0,0,1,.617,1.115q-.3,3.732-.584,7.465c-.13,1.73-.245,3.46-.371,5.249.618,0,1.174.015,1.73,0,.482-.016.932.046,1.14.536a1.1,1.1,0,0,1-.389,1.265c-.639.649-1.251,1.325-1.984,2.107h.867q5.748,0,11.5,0c.96,0,1.279.326,1.282,1.279s0,1.9,0,2.843c0,.832,0,1.663,0,2.55.469,0,.852,0,1.236,0,.94.009,1.225.293,1.226,1.236q0,3.876,0,7.752v.677c1.216.084,1.538.269,1.542.968q.025,4.425,0,8.851a.876.876,0,0,1-.931.94c-.187.01-.373.017-.611.027v.742q0,3.876,0,7.752c0,.864-.3,1.172-1.153,1.172q-19.374,0-38.747,0a5.558,5.558,0,0,1-5.166-3.62c-.156-.419-.262-.856-.391-1.285v-28.3c1.125-2.9,2.148-3.586,5.33-3.586q5.775,0,11.549,0c.217,0,.434-.019.76-.034-.751-.8-1.39-1.5-2.05-2.173-.334-.343-.541-.774-.272-1.151a1.58,1.58,0,0,1,.993-.522,13.654,13.654,0,0,1,1.855-.023c-.117-1.626-.225-3.148-.338-4.67-.185-2.509-.349-5.019-.576-7.524A1.819,1.819,0,0,1-1019.845-1082.646Zm25.922,44.833c-1.566,0-3.069.007-4.571,0a5.366,5.366,0,0,1-5.274-4.509,5.307,5.307,0,0,1,3.417-5.858,7.228,7.228,0,0,1,2.143-.342c1.411-.051,2.826-.015,4.253-.015v-7.884h-.888q-18.339,0-36.679,0c-1.407,0-2.846.183-4.161-.727-.016.231-.031.354-.031.477q0,11.369,0,22.739a3.843,3.843,0,0,0,4.1,4.009q18.5,0,37,0c.225,0,.451-.019.683-.03Zm-2.508-25.179a3.155,3.155,0,0,0-.4-.053c-4.241,0-8.482-.008-12.722.012a1.121,1.121,0,0,0-.708.33c-.993,1.016-1.952,2.065-2.93,3.1-.624.657-1.061.657-1.684,0-.934-.984-1.873-1.963-2.782-2.969a1.351,1.351,0,0,0-1.115-.482c-4.305.018-8.611.01-12.916.012-.624,0-1.25-.017-1.872.028a2.312,2.312,0,0,0-2.069,2.054,2.4,2.4,0,0,0,2.608,2.724q18.018.005,36.036,0c.169,0,.338-.018.552-.03Zm-12.31-4.015c-.4,0-.612.006-.822,0-.737-.024-1.061-.355-1.008-1.1.2-2.873.423-5.745.635-8.617.1-1.346.192-2.693.29-4.068h-8.776c.057.819.109,1.59.166,2.361.243,3.258.505,6.515.724,9.774.1,1.53,0,1.6-1.516,1.663-.032,0-.062.041-.159.107l5.175,5.507Zm16.345,27.384v-7.091c-2.17,0-4.3-.083-6.421.025a3.477,3.477,0,0,0-3.2,3.392,3.464,3.464,0,0,0,2.907,3.565,20.013,20.013,0,0,0,2.828.1C-994.995-1039.612-993.711-1039.623-992.4-1039.623Z" transform="translate(1037.54 1082.646)" fill="#12263f"/>
      <path id="Path_185331" data-name="Path 185331" d="M-885.28-854.835v5.063a12.618,12.618,0,0,1,1.817,1.01,4.212,4.212,0,0,1,1.638,4.281,4.24,4.24,0,0,1-2.891,3.417c-.468.17-.663.357-.6.852a5.241,5.241,0,0,1,0,1.1.829.829,0,0,1-.889.829c-.528,0-.957-.318-.876-.816.208-1.279-.316-1.879-1.471-2.408a3.978,3.978,0,0,1-2.134-3.4c-.077-.665.222-1.151.75-1.235.593-.095.982.253,1.094.978a2.456,2.456,0,0,0,1.729,2.324c0-1.65.006-3.274-.013-4.9,0-.116-.169-.284-.3-.338-2.182-.913-3.333-2.432-3.258-4.381a4.558,4.558,0,0,1,3.572-4.34c0-.521-.01-1.056,0-1.591a.863.863,0,0,1,.886-.966.867.867,0,0,1,.911.943c.015.536,0,1.072,0,1.618a4.512,4.512,0,0,1,3.39,3.158,5.329,5.329,0,0,1,.19.945,1,1,0,0,1-.782,1.217c-.535.084-.98-.282-1.043-.965a2.7,2.7,0,0,0-1.335-2.224A3.638,3.638,0,0,0-885.28-854.835Zm-1.863.058a2.447,2.447,0,0,0-1.674,2.668,2.258,2.258,0,0,0,1.7,2.074q0-2.256,0-4.5C-887.119-854.613-887.134-854.69-887.143-854.777Zm1.849,11.932a2.482,2.482,0,0,0,1.695-2.565,2.375,2.375,0,0,0-1.695-2.236Z" transform="translate(909.722 888.28)" fill="#12263f"/>
      <path id="Path_185332" data-name="Path 185332" d="M-749.387-791a1.949,1.949,0,0,1,1.894-1.96,1.981,1.981,0,0,1,1.969,1.966,1.948,1.948,0,0,1-1.945,1.91A1.905,1.905,0,0,1-749.387-791Z" transform="translate(786.709 830.479)" fill="#12263f"/>
    </g>
  </g>
</svg>
