<svg xmlns="http://www.w3.org/2000/svg" width="45.128" height="46.664" viewBox="0 0 45.128 46.664">
  <g id="oOGpM4.tif" transform="translate(3971.064 -547.78)">
    <g id="Group_143678" data-name="Group 143678" transform="translate(-3971.064 547.78)">
      <path id="Path_185269" data-name="Path 185269" d="M-3936.856,563.23c1.589-1.885,2.984-3.541,4.382-5.195a2.742,2.742,0,0,1,4.307-.409c.375.308.75.617,1.117.935a2.663,2.663,0,0,1,.359,4.025c-2.983,3.582-5.957,7.172-9.006,10.7a4.415,4.415,0,0,0-1.189,3.2c.076,5.05.033,10.1.03,15.154,0,1.99-.828,2.808-2.837,2.809q-14.279,0-28.557,0c-1.99,0-2.812-.829-2.812-2.833q0-20.5,0-40.994c0-1.994.828-2.82,2.825-2.82,7.771,0,15.541.01,23.312-.014a3.123,3.123,0,0,1,2.411,1c1.557,1.6,3.141,3.177,4.737,4.742a2.9,2.9,0,0,1,.933,2.245C-3936.879,558.158-3936.856,560.546-3936.856,563.23Zm-1.561-7.657c-1.754,0-3.34,0-4.927,0-1.162,0-1.287-.128-1.291-1.284-.005-1.61,0-3.221,0-4.88-.249-.023-.4-.05-.557-.05q-11.562,0-23.125-.013c-.974,0-1.2.473-1.2,1.333q.019,20.407.01,40.813c0,1.225.169,1.39,1.41,1.391q14.137,0,28.274,0c1.23,0,1.4-.169,1.4-1.4q0-7,0-13.993c0-.208-.019-.417-.039-.842-1.077,1.276-2,2.387-2.944,3.482a6.69,6.69,0,0,1-1.65,1.747c-1.9.968-3.88,1.772-5.853,2.583a.782.782,0,0,1-1.115-.951c.458-2.05.964-4.09,1.484-6.126a2.265,2.265,0,0,1,.5-.81c2.756-3.31,5.47-6.656,8.307-9.894a4.933,4.933,0,0,0,1.337-3.74C-3938.494,560.522-3938.417,558.1-3938.417,555.573Zm5.008,6.018-13.244,15.791,3.229,2.694,13.24-15.784Z" transform="translate(3971.064 -547.78)" fill="#fff"/>
      <path id="Path_185270" data-name="Path 185270" d="M-3940.012,677.547c-.71,0-1.42-.016-2.13,0-.726.021-1.071-.286-1.062-1.032q.026-2.082,0-4.164c-.01-.742.325-1.048,1.055-1.038,1.388.02,2.776.015,4.163,0,.682-.006,1.017.287,1.012.982q-.015,2.13,0,4.261c.005.693-.322,1-1.006.988S-3939.335,677.547-3940.012,677.547Zm1.447-4.591h-3.018v2.959h3.018Z" transform="translate(3948.641 -647.21)" fill="#fff"/>
      <path id="Path_185271" data-name="Path 185271" d="M-3936.952,722.3c0,.71,0,1.42,0,2.13a.825.825,0,0,1-.942.949q-2.179-.007-4.357,0c-.584,0-.917-.269-.92-.869-.006-1.485,0-2.97,0-4.455a.792.792,0,0,1,.89-.9c1.485,0,2.969,0,4.454,0a.794.794,0,0,1,.876.913C-3936.953,720.814-3936.952,721.556-3936.952,722.3Zm-1.625,1.47V720.8h-2.971v2.971Z" transform="translate(3948.616 -685.711)" fill="#fff"/>
      <path id="Path_185272" data-name="Path 185272" d="M-3895.465,635.484q3.248,0,6.495,0c.6,0,1.267-.037,1.258.8-.009.767-.629.762-1.2.761q-6.543-.006-13.086,0c-.573,0-1.194.01-1.209-.756-.016-.843.651-.809,1.251-.808Q-3898.712,635.487-3895.465,635.484Z" transform="translate(3916.452 -618.367)" fill="#fff"/>
      <path id="Path_185273" data-name="Path 185273" d="M-3894.274,589.241c-1.323,0-2.647-.007-3.97,0-.547,0-1-.137-1.013-.762s.411-.8.969-.8q4.066.008,8.133,0c.561,0,.983.189.965.808s-.473.761-1.019.756C-3891.563,589.234-3892.918,589.241-3894.274,589.241Z" transform="translate(3913.27 -579.894)" fill="#fff"/>
      <path id="Path_185274" data-name="Path 185274" d="M-3940.374,579.706c.623-1.24,1.178-2.325,1.715-3.419.266-.542.614-1,1.262-.652.6.32.421.851.171,1.348-.682,1.351-1.344,2.713-2.035,4.059-.466.908-.922.993-1.635.312-.676-.646-1.326-1.318-1.987-1.979-.4-.4-.567-.9-.053-1.225a1.3,1.3,0,0,1,1.15.131A10.69,10.69,0,0,1-3940.374,579.706Z" transform="translate(3948.683 -570.102)" fill="#fff"/>
      <path id="Path_185275" data-name="Path 185275" d="M-3940.357,627.589c.641-1.279,1.191-2.364,1.729-3.455.259-.526.577-1.035,1.243-.71s.449.893.188,1.413c-.665,1.324-1.315,2.655-1.99,3.973-.495.969-.935,1.049-1.7.316-.651-.626-1.279-1.274-1.919-1.911-.388-.385-.579-.812-.133-1.258s.883-.261,1.254.14C-3941.265,626.545-3940.869,627.009-3940.357,627.589Z" transform="translate(3948.631 -608.58)" fill="#fff"/>
      <path id="Path_185276" data-name="Path 185276" d="M-3898.976,684.844c-1.064,0-2.129-.008-3.193,0-.577.006-1.074-.114-1.065-.805.009-.626.466-.763,1.011-.761q3.242.012,6.483,0c.545,0,1,.133,1.017.757.014.69-.482.816-1.06.81C-3896.847,684.836-3897.912,684.844-3898.976,684.844Z" transform="translate(3916.471 -656.838)" fill="#fff"/>
      <path id="Path_185277" data-name="Path 185277" d="M-3900.262,732.567a12.828,12.828,0,0,1-2.12-.035c-.336-.057-.611-.482-.913-.74.3-.26.588-.729.9-.746a40.74,40.74,0,0,1,4.441,0c.3.017.575.511.862.785-.284.244-.545.658-.856.7A17.5,17.5,0,0,1-3900.262,732.567Z" transform="translate(3916.52 -695.235)" fill="#fff"/>
    </g>
  </g>
</svg>
