<svg xmlns="http://www.w3.org/2000/svg" width="110.338" height="183.963" viewBox="0 0 110.338 183.963">
  <g id="bg1YJ3" transform="translate(-45.213 674.691)">
    <g id="Group_143770" data-name="Group 143770" transform="translate(45.213 -674.691)">
      <path id="Path_185535" data-name="Path 185535" d="M74.27-520.687c-4.445,8.9-8.7,17.771-13.358,26.421-.841,1.561-3.352,2.219-5.091,3.294.037-2.2-.818-5.051.243-6.5,12.822-17.468,12.611-35.916,6.817-55.995a236.845,236.845,0,0,1-8.426-47.1c-1.406-18.159,4.472-35.26,13.84-50.85,3.469-5.774,6.774-11.18,5.883-18.344-.186-1.5,1.92-3.281,2.97-4.934.931,1.556,2.552,3.06,2.672,4.675.481,6.6-.231,12.567-4.226,18.717-17.289,26.614-19.7,55.236-9.2,85.078,1.331-18.552.417-37.261,1.2-55.863l3.764-.339c.671,2.508,1.88,5.009,1.92,7.527.2,12.742.639,25.517-.015,38.228-1.382,26.9,3.952,52.106,16.627,75.893,1.469,2.757.805,6.65,1.131,10.016-2.134-2.426-4.862-4.547-6.286-7.336C80.833-505.737,77.481-513.659,74.27-520.687Z" transform="translate(-40.439 674.691)" fill="#12263f"/>
      <path id="Path_185536" data-name="Path 185536" d="M111.131-522.708c2.238-10.584,4.656-19.623,5.955-28.821,1.34-9.5,1.47-19.172,2.387-28.745a32.08,32.08,0,0,1,2.247-10.133c3.544-7.784,3.541-15.145-.787-22.576-8.446-14.506-17.158-28.878-24.963-43.723-2.3-4.374-2.066-10.141-2.624-15.31-.087-.807,1.686-2.242,2.837-2.583.61-.18,2.459,1.318,2.516,2.141,1.374,20.215,15.911,34.1,24.645,50.694,6.337,12.036,10.06,23.273,2.791,35.913a5.59,5.59,0,0,0-.662,2.164c-2.2,21.347-4.972,42.662-6.213,64.066-.434,7.483,3.011,15.166,4.48,22.8.359,1.866-.093,3.888-.171,5.839-1.745-1.1-4.617-1.86-5.051-3.34C115.7-503.913,113.422-513.658,111.131-522.708Z" transform="translate(-19.782 674.732)" fill="#12263f"/>
      <path id="Path_185537" data-name="Path 185537" d="M104.833-637.454c-4.307,24.621-8.856,50.047-13.069,75.53a14.6,14.6,0,0,0,1.8,8.521c7.127,13.4,7.171,27.858,6.649,42.384-.053,1.469-2.025,2.87-3.107,4.3-.908-1.533-2.653-3.1-2.594-4.591.639-16-.882-31.468-9.386-45.6-.728-1.209-.423-3.483.154-4.969,8.463-21.717,8.191-44.842,11.006-67.465.408-3.277.344-6.672,1.221-9.809.549-1.958,2.452-3.537,3.748-5.285Z" transform="translate(-24.349 690.677)" fill="#12263f"/>
      <path id="Path_185538" data-name="Path 185538" d="M51.406-643.251c0,1.265.358,2.679-.086,3.764a36.476,36.476,0,0,1-3.026,5.079c-.938-1.8-2.239-3.511-2.711-5.426a12.754,12.754,0,0,1-.017-6.026,53.056,53.056,0,0,1,3.074-7.388c.923,2.32,1.944,4.608,2.722,6.976A9.965,9.965,0,0,1,51.406-643.251Z" transform="translate(-45.213 686.021)" fill="#12263f"/>
      <path id="Path_185539" data-name="Path 185539" d="M45.425-592.259c0-1.013-.3-2.15.055-3.012.853-2.05,2.017-3.968,3.055-5.938.945,2.037,2.3,3.994,2.721,6.135a19.5,19.5,0,0,1-.021,7.547c-.387,1.842-1.9,3.447-2.918,5.155a33.861,33.861,0,0,1-2.8-5.359C45.07-589.1,45.429-590.74,45.425-592.259Z" transform="translate(-45.171 713.519)" fill="#12263f"/>
      <path id="Path_185540" data-name="Path 185540" d="M52.511-660.829l-3.8,8.706c-1.093-3.17-2.254-6.32-3.233-9.525a4.7,4.7,0,0,1,.023-3c.876-2.011,2.074-3.882,3.142-5.811.912,2.045,1.94,4.05,2.685,6.155a9.516,9.516,0,0,1,.053,3.02Z" transform="translate(-45.195 676.928)" fill="#12263f"/>
      <path id="Path_185541" data-name="Path 185541" d="M51.375-608.759a12.91,12.91,0,0,1-.063,3.777,35.684,35.684,0,0,1-2.335,4.9c-1.172-1.57-3.034-3.006-3.362-4.737a27.169,27.169,0,0,1-.015-9.063c.251-1.619,1.822-3.031,2.8-4.536.989,1.449,2.371,2.777,2.86,4.377C51.752-612.421,51.367-610.53,51.375-608.759Z" transform="translate(-45.206 704.426)" fill="#12263f"/>
      <path id="Path_185542" data-name="Path 185542" d="M52.564-626.181l-4.188,8.828c-1.024-2.967-2.916-5.956-2.841-8.9.081-3.161,2.008-6.274,3.129-9.407Z" transform="translate(-45.044 695.316)" fill="#12263f"/>
      <path id="Path_185543" data-name="Path 185543" d="M51.362-574.011c-.011,1.264.358,2.685-.095,3.76a33.729,33.729,0,0,1-3.066,4.912c-.912-1.553-2.38-3.026-2.618-4.677a31.213,31.213,0,0,1,0-9.071c.246-1.609,1.82-3.019,2.8-4.518,1,1.427,2.4,2.731,2.884,4.315C51.764-577.675,51.375-575.783,51.362-574.011Z" transform="translate(-45.192 722.821)" fill="#12263f"/>
      <path id="Path_185544" data-name="Path 185544" d="M74.9-584.681c3.281,3.982,6.091,7.306,8.674,10.8a18.712,18.712,0,0,1-2.664,2.669c-3.236-3-6.373-6.106-9.317-9.388C71.459-580.755,73.163-582.56,74.9-584.681Z" transform="translate(-31.277 722.252)" fill="#12263f"/>
      <path id="Path_185545" data-name="Path 185545" d="M52.644-560.213,48.236-554.5c-.978-2.011-2.737-4.03-2.713-6.03.026-1.967,1.859-3.911,2.9-5.866Z" transform="translate(-45.049 731.912)" fill="#12263f"/>
    </g>
  </g>
</svg>
